<svg width="56" height="56" viewBox="0 0 56 56" fill="none" xmlns="http://www.w3.org/2000/svg">
<g clip-path="url(#clip0_28909_31430)">
<rect width="56" height="56" rx="7.77778" fill="#FAFAFA"/>
<g opacity="0.5" filter="url(#filter0_f_28909_31430)">
<ellipse cx="47.2071" cy="-5.19532" rx="21.4959" ry="23.8082" transform="rotate(-103.701 47.2071 -5.19532)" fill="url(#paint0_radial_28909_31430)"/>
</g>
<g style="mix-blend-mode:plus-lighter" opacity="0.45" filter="url(#filter1_f_28909_31430)">
<circle cx="49.5292" cy="-3.82246" r="31.6914" transform="rotate(-103.701 49.5292 -3.82246)" fill="url(#paint1_radial_28909_31430)"/>
</g>
<g style="mix-blend-mode:plus-lighter" opacity="0.18" filter="url(#filter2_f_28909_31430)">
<ellipse cx="25.3354" cy="-14.5393" rx="18.3764" ry="14.7732" fill="#2079E6"/>
</g>
<g style="mix-blend-mode:hard-light">
<g opacity="0.5" filter="url(#filter3_f_28909_31430)">
<ellipse cx="25.5695" cy="56.481" rx="25.5695" ry="56.481" transform="matrix(0.380755 0.924676 -0.938706 0.344719 110.037 8.00098)" fill="url(#paint2_radial_28909_31430)"/>
</g>
<g style="mix-blend-mode:plus-lighter" opacity="0.45" filter="url(#filter4_f_28909_31430)">
<ellipse cx="39.4026" cy="53.5153" rx="39.4026" ry="53.5153" transform="matrix(-0.0488099 0.998808 -0.997132 -0.0756761 129.57 15.0996)" fill="url(#paint3_radial_28909_31430)"/>
</g>
<g style="mix-blend-mode:plus-lighter" opacity="0.18" filter="url(#filter5_f_28909_31430)">
<ellipse cx="36.3093" cy="18.4637" rx="36.3093" ry="18.4637" transform="matrix(-0.99983 -0.0184552 -0.0202157 -0.999796 116.354 64.2598)" fill="#163D6B"/>
</g>
<g style="mix-blend-mode:plus-lighter" opacity="0.18" filter="url(#filter6_f_28909_31430)">
<ellipse cx="41.0857" cy="18.4637" rx="41.0857" ry="18.4637" transform="matrix(-0.99983 -0.0184552 -0.0202157 -0.999796 55.9043 78.4365)" fill="white"/>
</g>
</g>
<g opacity="0.35" filter="url(#filter7_f_28909_31430)">
<ellipse cx="29.0309" cy="30.13" rx="29.0309" ry="30.13" transform="matrix(0.137355 -0.990522 -0.990522 -0.137355 25.6953 15.791)" fill="#7B1497"/>
</g>
<g style="mix-blend-mode:plus-lighter" opacity="0.21" filter="url(#filter8_f_28909_31430)">
<ellipse cx="27.1492" cy="27.9661" rx="27.1492" ry="27.9661" transform="matrix(0.137355 -0.990522 -0.990522 -0.137355 35.1289 27.6172)" fill="#5C0375"/>
</g>
<g opacity="0.45" filter="url(#filter9_f_28909_31430)">
<ellipse cx="17.6906" cy="17.6502" rx="17.6906" ry="17.6502" transform="matrix(0.000297864 -1 -1 -0.000297864 41.7227 6.15234)" fill="#9E15AA"/>
</g>
<g opacity="0.35" filter="url(#filter10_f_28909_31430)">
<ellipse cx="29.3311" cy="43.5156" rx="29.3311" ry="43.5156" transform="matrix(-0.319694 -0.947521 -0.909567 0.415558 43.918 11.2109)" fill="#7B1497"/>
</g>
<g style="mix-blend-mode:plus-lighter" opacity="0.21" filter="url(#filter11_f_28909_31430)">
<ellipse cx="27.4299" cy="40.3903" rx="27.4299" ry="40.3903" transform="matrix(-0.319694 -0.947521 -0.909567 0.415558 61.6934 14.6025)" fill="#C152DF"/>
</g>
<g opacity="0.4" filter="url(#filter12_f_28909_31430)">
<ellipse cx="17.6906" cy="26.6875" rx="17.6906" ry="26.6875" transform="matrix(-0.5 -0.866025 -0.866025 0.5 59.2383 -8.76953)" fill="#CA3FD7"/>
</g>
<g style="mix-blend-mode:plus-lighter" opacity="0.25" filter="url(#filter13_f_28909_31430)">
<ellipse cx="19.5" cy="18.5" rx="19.5" ry="18.5" transform="matrix(-4.37114e-08 -1 -1 1.39091e-08 47 47)" fill="#C47AFF"/>
</g>
<circle cx="36.4663" cy="19.3825" r="5.14134" transform="rotate(-15 36.4663 19.3825)" fill="#4444DE"/>
<circle cx="36.4663" cy="19.3825" r="5.14134" transform="rotate(-15 36.4663 19.3825)" stroke="url(#paint4_linear_28909_31430)" stroke-width="0.726406" style="mix-blend-mode:overlay"/>
<path d="M36.9565 17.9797C36.8775 17.6846 36.7095 17.4837 36.4525 17.3769C36.1996 17.2632 35.8955 17.2539 35.5404 17.3491C35.1143 17.4633 34.7262 17.6756 34.3761 17.986L34.1829 17.2649C34.525 16.9683 34.9473 16.7527 35.4499 16.618C36.0235 16.4643 36.5185 16.4868 36.9348 16.6856C37.3551 16.8775 37.6282 17.2083 37.754 17.6781C37.8433 18.0114 37.8198 18.328 37.6836 18.628C37.5513 18.9211 37.3414 19.1647 37.0538 19.3588C37.4189 19.3664 37.7465 19.4748 38.0368 19.6839C38.3325 19.8916 38.5308 20.1839 38.6318 20.5608C38.7607 21.0416 38.6796 21.4819 38.3886 21.882C38.1031 22.2805 37.6681 22.5581 37.0835 22.7147C36.5427 22.8596 36.0299 22.8799 35.5453 22.7756L35.3521 22.0544C35.8724 22.1609 36.3703 22.1505 36.8455 22.0231C37.2061 21.9265 37.4742 21.7581 37.6499 21.5178C37.8241 21.272 37.8717 21.0017 37.7926 20.7067C37.6975 20.3516 37.487 20.1123 37.1611 19.9888C36.8408 19.8639 36.4375 19.8665 35.9513 19.9968L35.7792 20.0429L35.6123 19.4201L35.8499 19.3565C36.2433 19.2511 36.5462 19.0704 36.7586 18.8144C36.9711 18.5584 37.0371 18.2801 36.9565 17.9797Z" fill="white"/>
<g filter="url(#filter14_d_28909_31430)">
<path d="M34.0367 38.9545C34.1209 38.9326 34.2107 38.9431 34.2881 38.9843C34.3655 39.0256 34.4248 39.0955 34.4553 39.1786C34.5029 39.3035 34.5431 39.4315 34.5757 39.5612C34.8106 40.4867 34.6749 41.4661 34.1981 42.2838C33.7213 43.1014 32.9429 43.6907 32.0337 43.9217C31.1243 44.1527 30.1584 44.0065 29.3491 43.5154C28.54 43.0243 27.9533 42.2283 27.7182 41.3029C27.6849 41.1734 27.6592 41.0417 27.6414 40.9093C27.6292 40.8218 27.6487 40.7325 27.6968 40.6594C27.745 40.5865 27.8184 40.5341 27.9023 40.5125L34.0367 38.9545ZM23.5265 10.4185C24.0721 10.2799 24.6515 10.3677 25.137 10.6624C25.6225 10.957 25.9748 11.4343 26.1159 11.9896L26.5189 13.5759C27.7113 13.4938 28.9101 13.6531 30.0455 14.0445C30.3618 14.1683 30.6718 14.3059 30.9766 14.4538C29.4526 16.2124 28.7853 18.6633 29.4016 21.0897C30.4022 25.0285 34.406 27.4107 38.3449 26.4103C38.5246 26.3646 38.7 26.3098 38.873 26.252C39.8502 29.1023 41.3567 31.7467 43.3169 34.0372L43.3164 34.0353C43.396 34.1283 43.4512 34.2402 43.4765 34.3604C43.5017 34.4805 43.4969 34.6051 43.4615 34.7219C43.426 34.8389 43.361 34.9455 43.2737 35.0296C43.1864 35.1135 43.0788 35.1727 42.9619 35.2025L18.2731 41.473C18.1563 41.5024 18.034 41.5008 17.9174 41.4687C17.8008 41.4365 17.6938 41.3751 17.6069 41.2896C17.5199 41.2039 17.4556 41.0968 17.4203 40.9793C17.3851 40.862 17.3799 40.7379 17.4052 40.6184C18.1684 37.0441 18.098 33.3308 17.2002 29.7746L16.9278 28.7022C16.4069 26.7803 16.3182 24.7675 16.6684 22.8134C17.0186 20.8592 17.7987 19.0135 18.9506 17.4145C19.8708 16.2253 21.0552 15.2747 22.408 14.6392L22.0005 13.0348C21.8596 12.4796 21.9414 11.8919 22.2275 11.4014C22.5135 10.9107 22.9809 10.5571 23.5265 10.4185Z" fill="url(#paint5_linear_28909_31430)"/>
<path d="M34.0367 38.9545C34.1209 38.9326 34.2107 38.9431 34.2881 38.9843C34.3655 39.0256 34.4248 39.0955 34.4553 39.1786C34.5029 39.3035 34.5431 39.4315 34.5757 39.5612C34.8106 40.4867 34.6749 41.4661 34.1981 42.2838C33.7213 43.1014 32.9429 43.6907 32.0337 43.9217C31.1243 44.1527 30.1584 44.0065 29.3491 43.5154C28.54 43.0243 27.9533 42.2283 27.7182 41.3029C27.6849 41.1734 27.6592 41.0417 27.6414 40.9093C27.6292 40.8218 27.6487 40.7325 27.6968 40.6594C27.745 40.5865 27.8184 40.5341 27.9023 40.5125L34.0367 38.9545ZM23.5265 10.4185C24.0721 10.2799 24.6515 10.3677 25.137 10.6624C25.6225 10.957 25.9748 11.4343 26.1159 11.9896L26.5189 13.5759C27.7113 13.4938 28.9101 13.6531 30.0455 14.0445C30.3618 14.1683 30.6718 14.3059 30.9766 14.4538C29.4526 16.2124 28.7853 18.6633 29.4016 21.0897C30.4022 25.0285 34.406 27.4107 38.3449 26.4103C38.5246 26.3646 38.7 26.3098 38.873 26.252C39.8502 29.1023 41.3567 31.7467 43.3169 34.0372L43.3164 34.0353C43.396 34.1283 43.4512 34.2402 43.4765 34.3604C43.5017 34.4805 43.4969 34.6051 43.4615 34.7219C43.426 34.8389 43.361 34.9455 43.2737 35.0296C43.1864 35.1135 43.0788 35.1727 42.9619 35.2025L18.2731 41.473C18.1563 41.5024 18.034 41.5008 17.9174 41.4687C17.8008 41.4365 17.6938 41.3751 17.6069 41.2896C17.5199 41.2039 17.4556 41.0968 17.4203 40.9793C17.3851 40.862 17.3799 40.7379 17.4052 40.6184C18.1684 37.0441 18.098 33.3308 17.2002 29.7746L16.9278 28.7022C16.4069 26.7803 16.3182 24.7675 16.6684 22.8134C17.0186 20.8592 17.7987 19.0135 18.9506 17.4145C19.8708 16.2253 21.0552 15.2747 22.408 14.6392L22.0005 13.0348C21.8596 12.4796 21.9414 11.8919 22.2275 11.4014C22.5135 10.9107 22.9809 10.5571 23.5265 10.4185Z" fill="url(#paint6_radial_28909_31430)" fill-opacity="0.4" style="mix-blend-mode:overlay"/>
</g>
</g>
<rect x="0.5" y="0.5" width="55" height="55" rx="7.27778" stroke="black" style="mix-blend-mode:overlay"/>
<defs>
<filter id="filter0_f_28909_31430" x="-7.7103" y="-58.0609" width="109.835" height="105.731" filterUnits="userSpaceOnUse" color-interpolation-filters="sRGB">
<feFlood flood-opacity="0" result="BackgroundImageFix"/>
<feBlend mode="normal" in="SourceGraphic" in2="BackgroundImageFix" result="shape"/>
<feGaussianBlur stdDeviation="15.6139" result="effect1_foregroundBlur_28909_31430"/>
</filter>
<filter id="filter1_f_28909_31430" x="2.60008" y="-50.7515" width="93.8584" height="93.8575" filterUnits="userSpaceOnUse" color-interpolation-filters="sRGB">
<feFlood flood-opacity="0" result="BackgroundImageFix"/>
<feBlend mode="normal" in="SourceGraphic" in2="BackgroundImageFix" result="shape"/>
<feGaussianBlur stdDeviation="7.615" result="effect1_foregroundBlur_28909_31430"/>
</filter>
<filter id="filter2_f_28909_31430" x="-2.64959" y="-38.9211" width="55.9691" height="48.7631" filterUnits="userSpaceOnUse" color-interpolation-filters="sRGB">
<feFlood flood-opacity="0" result="BackgroundImageFix"/>
<feBlend mode="normal" in="SourceGraphic" in2="BackgroundImageFix" result="shape"/>
<feGaussianBlur stdDeviation="4.80429" result="effect1_foregroundBlur_28909_31430"/>
</filter>
<filter id="filter3_f_28909_31430" x="-18.39" y="-10.7425" width="170.286" height="123.715" filterUnits="userSpaceOnUse" color-interpolation-filters="sRGB">
<feFlood flood-opacity="0" result="BackgroundImageFix"/>
<feBlend mode="normal" in="SourceGraphic" in2="BackgroundImageFix" result="shape"/>
<feGaussianBlur stdDeviation="15.6139" result="effect1_foregroundBlur_28909_31430"/>
</filter>
<filter id="filter4_f_28909_31430" x="-10.3392" y="-20.389" width="169.249" height="141.589" filterUnits="userSpaceOnUse" color-interpolation-filters="sRGB">
<feFlood flood-opacity="0" result="BackgroundImageFix"/>
<feBlend mode="normal" in="SourceGraphic" in2="BackgroundImageFix" result="shape"/>
<feGaussianBlur stdDeviation="15.6139" result="effect1_foregroundBlur_28909_31430"/>
</filter>
<filter id="filter5_f_28909_31430" x="33.7645" y="17.0486" width="91.8265" height="56.1625" filterUnits="userSpaceOnUse" color-interpolation-filters="sRGB">
<feFlood flood-opacity="0" result="BackgroundImageFix"/>
<feBlend mode="normal" in="SourceGraphic" in2="BackgroundImageFix" result="shape"/>
<feGaussianBlur stdDeviation="4.80429" result="effect1_foregroundBlur_28909_31430"/>
</filter>
<filter id="filter6_f_28909_31430" x="-48.2389" y="19.1322" width="125.382" height="80.1721" filterUnits="userSpaceOnUse" color-interpolation-filters="sRGB">
<feFlood flood-opacity="0" result="BackgroundImageFix"/>
<feBlend mode="normal" in="SourceGraphic" in2="BackgroundImageFix" result="shape"/>
<feGaussianBlur stdDeviation="10.805" result="effect1_foregroundBlur_28909_31430"/>
</filter>
<filter id="filter7_f_28909_31430" x="-88.2988" y="-104.183" width="176.273" height="174.158" filterUnits="userSpaceOnUse" color-interpolation-filters="sRGB">
<feFlood flood-opacity="0" result="BackgroundImageFix"/>
<feBlend mode="normal" in="SourceGraphic" in2="BackgroundImageFix" result="shape"/>
<feGaussianBlur stdDeviation="29.0117" result="effect1_foregroundBlur_28909_31430"/>
</filter>
<filter id="filter8_f_28909_31430" x="-52.7975" y="-66.2848" width="127.909" height="126.338" filterUnits="userSpaceOnUse" color-interpolation-filters="sRGB">
<feFlood flood-opacity="0" result="BackgroundImageFix"/>
<feBlend mode="normal" in="SourceGraphic" in2="BackgroundImageFix" result="shape"/>
<feGaussianBlur stdDeviation="18.0003" result="effect1_foregroundBlur_28909_31430"/>
</filter>
<filter id="filter9_f_28909_31430" x="-6.70916" y="-42.3713" width="61.5746" height="61.6556" filterUnits="userSpaceOnUse" color-interpolation-filters="sRGB">
<feFlood flood-opacity="0" result="BackgroundImageFix"/>
<feBlend mode="normal" in="SourceGraphic" in2="BackgroundImageFix" result="shape"/>
<feGaussianBlur stdDeviation="6.56845" result="effect1_foregroundBlur_28909_31430"/>
</filter>
<filter id="filter10_f_28909_31430" x="-103.748" y="-89.6817" width="197.418" height="182.368" filterUnits="userSpaceOnUse" color-interpolation-filters="sRGB">
<feFlood flood-opacity="0" result="BackgroundImageFix"/>
<feBlend mode="normal" in="SourceGraphic" in2="BackgroundImageFix" result="shape"/>
<feGaussianBlur stdDeviation="29.0117" result="effect1_foregroundBlur_28909_31430"/>
</filter>
<filter id="filter11_f_28909_31430" x="-57.5924" y="-61.5465" width="147.558" height="133.887" filterUnits="userSpaceOnUse" color-interpolation-filters="sRGB">
<feFlood flood-opacity="0" result="BackgroundImageFix"/>
<feBlend mode="normal" in="SourceGraphic" in2="BackgroundImageFix" result="shape"/>
<feGaussianBlur stdDeviation="18.0003" result="effect1_foregroundBlur_28909_31430"/>
</filter>
<filter id="filter12_f_28909_31430" x="-13.6127" y="-47.2035" width="81.7878" height="72.9148" filterUnits="userSpaceOnUse" color-interpolation-filters="sRGB">
<feFlood flood-opacity="0" result="BackgroundImageFix"/>
<feBlend mode="normal" in="SourceGraphic" in2="BackgroundImageFix" result="shape"/>
<feGaussianBlur stdDeviation="8.07" result="effect1_foregroundBlur_28909_31430"/>
</filter>
<filter id="filter13_f_28909_31430" x="-10.61" y="-12.61" width="78.22" height="80.22" filterUnits="userSpaceOnUse" color-interpolation-filters="sRGB">
<feFlood flood-opacity="0" result="BackgroundImageFix"/>
<feBlend mode="normal" in="SourceGraphic" in2="BackgroundImageFix" result="shape"/>
<feGaussianBlur stdDeviation="10.305" result="effect1_foregroundBlur_28909_31430"/>
</filter>
<filter id="filter14_d_28909_31430" x="12.459" y="8.35449" width="35.0332" height="41.6738" filterUnits="userSpaceOnUse" color-interpolation-filters="sRGB">
<feFlood flood-opacity="0" result="BackgroundImageFix"/>
<feColorMatrix in="SourceAlpha" type="matrix" values="0 0 0 0 0 0 0 0 0 0 0 0 0 0 0 0 0 0 127 0" result="hardAlpha"/>
<feOffset dy="2"/>
<feGaussianBlur stdDeviation="2"/>
<feComposite in2="hardAlpha" operator="out"/>
<feColorMatrix type="matrix" values="0 0 0 0 0 0 0 0 0 0 0 0 0 0 0 0 0 0 0.28 0"/>
<feBlend mode="normal" in2="BackgroundImageFix" result="effect1_dropShadow_28909_31430"/>
<feBlend mode="normal" in="SourceGraphic" in2="effect1_dropShadow_28909_31430" result="shape"/>
</filter>
<radialGradient id="paint0_radial_28909_31430" cx="0" cy="0" r="1" gradientUnits="userSpaceOnUse" gradientTransform="translate(57.648 0.346242) rotate(170.635) scale(28.5889 61.7985)">
<stop offset="0.271982" stop-color="#2079E6"/>
<stop offset="0.804985" stop-color="#2079E6" stop-opacity="0"/>
</radialGradient>
<radialGradient id="paint1_radial_28909_31430" cx="0" cy="0" r="1" gradientUnits="userSpaceOnUse" gradientTransform="translate(64.9222 3.554) rotate(171.531) scale(42.0455 82.4629)">
<stop offset="0.271982" stop-color="#5C6AE8"/>
<stop offset="1" stop-color="#5C6AE8" stop-opacity="0"/>
</radialGradient>
<radialGradient id="paint2_radial_28909_31430" cx="0" cy="0" r="1" gradientUnits="userSpaceOnUse" gradientTransform="translate(37.9889 69.6274) rotate(161.793) scale(35.3219 141.148)">
<stop offset="0.271982" stop-color="#142768"/>
<stop offset="0.804985" stop-color="#0D37CD" stop-opacity="0"/>
</radialGradient>
<radialGradient id="paint3_radial_28909_31430" cx="0" cy="0" r="1" gradientUnits="userSpaceOnUse" gradientTransform="translate(58.5411 65.9715) rotate(168.567) scale(52.7527 137.991)">
<stop offset="0.271982" stop-color="#143961"/>
<stop offset="1" stop-color="#315881" stop-opacity="0"/>
</radialGradient>
<linearGradient id="paint4_linear_28909_31430" x1="38.7319" y1="12.1266" x2="35.4786" y2="20.1189" gradientUnits="userSpaceOnUse">
<stop stop-color="white"/>
<stop offset="1" stop-color="white" stop-opacity="0"/>
</linearGradient>
<linearGradient id="paint5_linear_28909_31430" x1="23.5269" y1="10.4184" x2="32.0361" y2="43.9211" gradientUnits="userSpaceOnUse">
<stop stop-color="#433E5B"/>
<stop offset="1" stop-color="#0F1015"/>
</linearGradient>
<radialGradient id="paint6_radial_28909_31430" cx="0" cy="0" r="1" gradientUnits="userSpaceOnUse" gradientTransform="translate(21.9996 14.0001) rotate(68.4988) scale(17.7341 24.6007)">
<stop stop-color="white"/>
<stop offset="1" stop-color="white" stop-opacity="0"/>
</radialGradient>
<clipPath id="clip0_28909_31430">
<rect width="56" height="56" rx="7.77778" fill="white"/>
</clipPath>
</defs>
</svg>
