<svg width="32" height="32" viewBox="0 0 32 32" fill="none" xmlns="http://www.w3.org/2000/svg">
<g clip-path="url(#clip0_28852_38376)">
<path d="M15.9988 19.0464C17.6819 19.0464 19.0464 17.6819 19.0464 15.9988C19.0464 14.3156 17.6819 12.9512 15.9988 12.9512C14.3156 12.9512 12.9512 14.3156 12.9512 15.9988C12.9512 17.6819 14.3156 19.0464 15.9988 19.0464Z" fill="#32CBF5"/>
<path d="M15.9979 22.853C24.4136 22.853 31.236 19.7829 31.236 15.9958C31.236 12.2087 24.4136 9.13867 15.9979 9.13867C7.58209 9.13867 0.759766 12.2087 0.759766 15.9958C0.759766 19.7829 7.58209 22.853 15.9979 22.853Z" stroke="#32CBF5" stroke-width="1.6"/>
<path d="M10.0605 19.4287C14.2684 26.717 20.3383 31.0903 23.618 29.1967C26.8977 27.3032 26.1453 19.8598 21.9374 12.5716C17.7295 5.28331 11.6596 0.910024 8.3799 2.80357C5.10018 4.69712 5.8526 12.1405 10.0605 19.4287Z" stroke="#32CBF5" stroke-width="1.6"/>
<path d="M10.0587 12.5758C5.85083 19.864 5.09841 27.3074 8.37813 29.2009C11.6579 31.0945 17.7278 26.7212 21.9356 19.4329C26.1435 12.1446 26.8959 4.7013 23.6162 2.80776C20.3365 0.914208 14.2666 5.28749 10.0587 12.5758Z" stroke="#32CBF5" stroke-width="1.6"/>
</g>
<defs>
<clipPath id="clip0_28852_38376">
<rect width="32" height="32" fill="white"/>
</clipPath>
</defs>
</svg>
