<svg width="115" height="32" viewBox="0 0 115 32" fill="none" xmlns="http://www.w3.org/2000/svg">
<g clip-path="url(#clip0_57_2)">
<path d="M51.6236 15.5805V8.18727C51.6236 6.91136 51.3177 5.94132 50.7058 5.27715C50.094 4.61298 49.1325 4.2809 47.8214 4.2809C46.9298 4.2809 46.2218 4.36829 45.6974 4.54307C45.1729 4.70037 44.8408 4.81398 44.7009 4.88389V15.5805H42V3.15356C42.0699 3.1186 42.2622 3.03995 42.5769 2.9176C42.8916 2.79526 43.3111 2.66417 43.8356 2.52434C44.36 2.38452 44.9719 2.26217 45.6711 2.1573C46.3704 2.05243 47.1396 2 47.9787 2C48.9402 2 49.8143 2.13109 50.6009 2.39326C51.3876 2.63795 52.0519 2.99625 52.5938 3.46817C53.1532 3.94007 53.5815 4.50811 53.8787 5.17228C54.1759 5.83645 54.3245 6.58801 54.3245 7.42697V15.5805H51.6236Z" fill="white"/>
<path d="M71.8887 9C71.8887 9.99625 71.7138 10.9226 71.3642 11.779C71.0321 12.6355 70.5601 13.3783 69.9482 14.0075C69.3363 14.6192 68.6021 15.1086 67.7455 15.4757C66.8889 15.8252 65.9449 16 64.9135 16C63.8821 16 62.9294 15.8252 62.0553 15.4757C61.1987 15.1086 60.4645 14.6192 59.8526 14.0075C59.2407 13.3783 58.76 12.6355 58.4104 11.779C58.0782 10.9226 57.9121 9.99625 57.9121 9C57.9121 8.00374 58.0782 7.0774 58.4104 6.22097C58.76 5.36454 59.2407 4.63046 59.8526 4.01873C60.4645 3.38951 61.1987 2.90012 62.0553 2.55056C62.9294 2.18352 63.8821 2 64.9135 2C65.9449 2 66.8889 2.18352 67.7455 2.55056C68.6021 2.90012 69.3363 3.38951 69.9482 4.01873C70.5601 4.63046 71.0321 5.36454 71.3642 6.22097C71.7138 7.0774 71.8887 8.00374 71.8887 9ZM69.0829 9C69.0829 8.30087 68.9867 7.66292 68.7944 7.08614C68.6021 6.49189 68.3224 5.98502 67.9553 5.56554C67.6057 5.12859 67.1686 4.7965 66.6442 4.56929C66.1372 4.32459 65.5603 4.20225 64.9135 4.20225C64.2492 4.20225 63.6548 4.32459 63.1304 4.56929C62.6234 4.7965 62.1864 5.12859 61.8193 5.56554C61.4696 5.98502 61.1987 6.49189 61.0064 7.08614C60.8141 7.66292 60.7179 8.30087 60.7179 9C60.7179 9.69913 60.8141 10.3458 61.0064 10.9401C61.1987 11.5169 61.4696 12.0237 61.8193 12.4607C62.1864 12.8801 62.6234 13.2122 63.1304 13.4569C63.6548 13.6841 64.2492 13.7978 64.9135 13.7978C65.5603 13.7978 66.1372 13.6841 66.6442 13.4569C67.1686 13.2122 67.6057 12.8801 67.9553 12.4607C68.3224 12.0237 68.6021 11.5169 68.7944 10.9401C68.9867 10.3458 69.0829 9.69913 69.0829 9Z" fill="white"/>
<path d="M87.5834 2.9962C87.4786 3.38072 87.295 3.89633 87.0328 4.54302C86.788 5.17223 86.4996 5.8801 86.1674 6.66662C85.8353 7.45313 85.4682 8.28334 85.0661 9.15725C84.6815 10.0137 84.2882 10.8527 83.8861 11.6742C83.5015 12.4782 83.1256 13.2385 82.7585 13.9551C82.4089 14.6542 82.103 15.2397 81.8408 15.7116H79.035C78.7203 15.1523 78.3881 14.5406 78.0385 13.8764C77.7064 13.1948 77.3655 12.5131 77.0158 11.8315C76.6837 11.1323 76.3603 10.4419 76.0456 9.76025C75.7309 9.0786 75.4338 8.44939 75.1541 7.87261C74.8918 7.27835 74.6558 6.75401 74.446 6.29958C74.2538 5.84514 74.1052 5.49558 74.0003 5.25089C73.8954 5.00619 73.7905 4.74402 73.6856 4.46437C73.5807 4.18472 73.5283 3.92255 73.5283 3.67785C73.5283 3.36325 73.6332 3.07486 73.8429 2.81268C74.0527 2.55051 74.4111 2.41943 74.9181 2.41943C75.2677 2.41943 75.5387 2.45438 75.7309 2.52429C75.9232 2.59421 76.0281 2.6379 76.0456 2.65538C76.3428 3.47685 76.6837 4.37698 77.0683 5.35576C77.4704 6.33453 77.8724 7.30457 78.2745 8.26587C78.6941 9.20969 79.0961 10.1186 79.4807 10.9925C79.8653 11.8489 80.2062 12.5743 80.5034 13.1685C80.7132 12.7665 80.9842 12.1985 81.3163 11.4644C81.6659 10.7129 82.0243 9.89134 82.3914 8.99995C82.776 8.10856 83.1606 7.19096 83.5452 6.24714C83.9298 5.30332 84.2707 4.43815 84.5679 3.65164C84.7077 3.26712 84.8825 2.96999 85.0923 2.76025C85.3021 2.53303 85.6517 2.41943 86.1412 2.41943C86.5608 2.41943 86.8929 2.49808 87.1377 2.65538C87.3999 2.81268 87.5485 2.92629 87.5834 2.9962Z" fill="white"/>
<path d="M99.2992 3.65164C99.2992 3.23216 99.4216 2.92629 99.6663 2.73403C99.911 2.52429 100.261 2.41943 100.715 2.41943C101.012 2.41943 101.275 2.45438 101.502 2.52429C101.747 2.59421 101.913 2.64664 102 2.6816V15.5805C101.878 15.6155 101.659 15.6504 101.344 15.6854C101.047 15.7203 100.68 15.7553 100.243 15.7903C99.8062 15.8427 99.3254 15.8777 98.801 15.8951C98.2765 15.9301 97.7433 15.9476 97.2014 15.9476C95.6106 15.9476 94.3169 15.7553 93.3205 15.3708C92.3415 14.9863 91.5636 14.427 90.9867 13.6929C90.27 12.7665 89.9116 11.5343 89.9116 9.9962V3.65164C89.9116 3.23216 90.034 2.92629 90.2787 2.73403C90.5234 2.52429 90.8731 2.41943 91.3276 2.41943C91.6248 2.41943 91.887 2.45438 92.1143 2.52429C92.359 2.59421 92.5251 2.64664 92.6125 2.6816V9.70782C92.6125 11.0362 92.9446 12.0325 93.6089 12.6966C94.2907 13.3608 95.4358 13.6929 97.0441 13.6929C97.6559 13.6929 98.1454 13.6754 98.5125 13.6404C98.8971 13.588 99.1593 13.5443 99.2992 13.5094V3.65164Z" fill="white"/>
<path d="M44.0602 29.9998C46.3502 29.9998 47.8702 28.5598 47.8702 26.3998C47.8702 24.2398 46.3302 22.7998 44.0202 22.7998H41.9502V29.9998H44.0602ZM44.0102 23.6098C45.7402 23.6098 46.8902 24.7298 46.8902 26.3998C46.8902 28.0698 45.7502 29.1898 44.0502 29.1898H42.9102V23.6098H44.0102Z" fill="white"/>
<path d="M51.3747 24.8798C49.8947 24.8798 48.8047 25.9898 48.8047 27.4998C48.8047 29.0098 49.8947 30.1198 51.3747 30.1198C52.8647 30.1198 53.9547 29.0098 53.9547 27.4998C53.9547 25.9898 52.8647 24.8798 51.3747 24.8798ZM51.3747 29.3098C50.4147 29.3098 49.7047 28.5598 49.7047 27.4998C49.7047 26.4398 50.4147 25.6898 51.3747 25.6898C52.3447 25.6898 53.0547 26.4398 53.0547 27.4998C53.0547 28.5598 52.3447 29.3098 51.3747 29.3098Z" fill="white"/>
<path d="M56.034 27.4998C56.034 26.4498 56.744 25.7098 57.744 25.7098C58.394 25.7098 58.884 25.9298 59.234 26.1498V25.2698C58.934 25.1098 58.464 24.8798 57.694 24.8798C56.154 24.8798 55.084 25.9898 55.084 27.4998C55.084 29.0098 56.154 30.1198 57.694 30.1198C58.474 30.1198 58.964 29.8798 59.264 29.7198V28.8498C58.954 29.0398 58.434 29.2898 57.744 29.2898C56.734 29.2898 56.034 28.5498 56.034 27.4998Z" fill="white"/>
<path d="M64.8819 29.9998V24.9998H63.9519V27.4598C63.9519 28.4798 63.2719 29.2598 62.3219 29.2598C61.4919 29.2598 61.3719 28.6398 61.3719 27.9498V24.9998H60.4419V28.1398C60.4419 29.3898 60.9219 30.1198 62.1519 30.1198C63.1819 30.1198 63.8219 29.3698 64.0119 28.9198H64.0319C64.0319 28.9398 63.9919 29.0898 63.9919 29.2998L64.0119 29.9998H64.8819Z" fill="white"/>
<path d="M66.7051 24.9998V29.9998H67.6351V27.6798C67.6351 26.7198 68.1251 25.7398 69.1751 25.7398C69.9651 25.7398 70.0951 26.3598 70.0951 27.0298V29.9998H71.0251V27.6798C71.0251 26.7398 71.4651 25.7398 72.5351 25.7398C73.2951 25.7398 73.4751 26.3198 73.4751 27.0398V29.9998H74.4051V26.8598C74.4051 25.5998 73.8951 24.8798 72.6551 24.8798C71.8851 24.8798 71.2251 25.3998 70.9151 26.0198H70.9051C70.7451 25.2898 70.1351 24.8798 69.4051 24.8798C68.5651 24.8798 67.8451 25.3898 67.5751 26.0798H67.5551C67.5651 26.0598 67.5951 25.9098 67.5951 25.6998L67.5751 24.9998H66.7051Z" fill="white"/>
<path d="M77.993 24.8798C76.613 24.8798 75.543 25.9898 75.543 27.4998C75.543 29.0498 76.613 30.1198 78.193 30.1198C79.003 30.1198 79.673 29.9098 80.063 29.6898V28.8398C79.643 29.1098 78.933 29.3098 78.253 29.3098C77.203 29.3098 76.543 28.6898 76.513 27.7098V27.6998H80.233C80.233 27.5998 80.253 27.4098 80.253 27.2098C80.253 25.9798 79.463 24.8798 77.993 24.8798ZM79.333 27.0398H76.523C76.603 26.3198 77.123 25.6598 77.983 25.6598C78.873 25.6598 79.343 26.3198 79.333 27.0398Z" fill="white"/>
<path d="M81.627 24.9998V29.9998H82.557V27.5398C82.557 26.5198 83.257 25.7398 84.237 25.7398C85.067 25.7398 85.187 26.3598 85.187 27.0498V29.9998H86.117V26.8598C86.117 25.6098 85.637 24.8798 84.407 24.8798C83.347 24.8798 82.687 25.6298 82.497 26.0798H82.477C82.487 26.0598 82.517 25.9098 82.517 25.6998L82.497 24.9998H81.627Z" fill="white"/>
<path d="M87.0591 24.9998V25.7598H87.8791V28.6298C87.8791 29.7498 88.6391 30.1198 89.3591 30.1198C89.8491 30.1198 90.2591 30.0098 90.4791 29.8898V29.0798C90.1991 29.2098 89.8491 29.2998 89.5391 29.2998C89.1191 29.2998 88.7991 29.0598 88.7991 28.3498V25.7598H90.3091V24.9998H88.7991V23.4998H87.8891V24.9998H87.0591Z" fill="white"/>
<path d="M91.5063 26.1098C91.8063 25.9298 92.4463 25.6898 93.1363 25.6898C93.9263 25.6898 94.4463 25.9898 94.4463 26.8598V27.1098C92.3563 26.8198 91.1863 27.4298 91.1863 28.6498C91.1863 29.5698 91.8463 30.1198 92.7663 30.1198C93.8963 30.1198 94.4463 29.1498 94.5063 29.0098H94.5263C94.5263 29.0098 94.4863 29.1698 94.4963 29.4098L94.5063 29.9998H95.3663V26.8098C95.3663 25.5598 94.6763 24.8798 93.2663 24.8798C92.4463 24.8798 91.7863 25.0998 91.5063 25.2498V26.1098ZM92.9263 29.3698C92.4263 29.3698 92.1063 29.0598 92.1063 28.6198C92.1063 27.9398 92.7963 27.4998 94.4263 27.7598C94.4263 28.5398 93.7763 29.3698 92.9263 29.3698Z" fill="white"/>
<path d="M96.3267 24.9998V25.7598H97.1467V28.6298C97.1467 29.7498 97.9067 30.1198 98.6267 30.1198C99.1167 30.1198 99.5267 30.0098 99.7467 29.8898V29.0798C99.4667 29.2098 99.1167 29.2998 98.8067 29.2998C98.3867 29.2998 98.0667 29.0598 98.0667 28.3498V25.7598H99.5767V24.9998H98.0667V23.4998H97.1567V24.9998H96.3267Z" fill="white"/>
<path d="M100.777 24.9999V29.9999H101.707V24.9999H100.777ZM100.657 23.5499C100.657 23.8799 100.887 24.1099 101.237 24.1099C101.577 24.1099 101.817 23.8799 101.817 23.5499C101.817 23.2099 101.577 22.9799 101.237 22.9799C100.887 22.9799 100.657 23.2099 100.657 23.5499Z" fill="white"/>
<path d="M105.681 24.8798C104.201 24.8798 103.111 25.9898 103.111 27.4998C103.111 29.0098 104.201 30.1198 105.681 30.1198C107.171 30.1198 108.261 29.0098 108.261 27.4998C108.261 25.9898 107.171 24.8798 105.681 24.8798ZM105.681 29.3098C104.721 29.3098 104.011 28.5598 104.011 27.4998C104.011 26.4398 104.721 25.6898 105.681 25.6898C106.651 25.6898 107.361 26.4398 107.361 27.4998C107.361 28.5598 106.651 29.3098 105.681 29.3098Z" fill="white"/>
<path d="M109.664 24.9998V29.9998H110.594V27.5398C110.594 26.5198 111.294 25.7398 112.274 25.7398C113.104 25.7398 113.224 26.3598 113.224 27.0498V29.9998H114.154V26.8598C114.154 25.6098 113.674 24.8798 112.444 24.8798C111.384 24.8798 110.724 25.6298 110.534 26.0798H110.514C110.524 26.0598 110.554 25.9098 110.554 25.6998L110.534 24.9998H109.664Z" fill="white"/>
<path d="M24.64 12.8257C24.64 13.6861 23.5955 14.1121 22.9938 13.4971L10.6757 0.907252C12.3413 0.31967 14.1333 0 16 0C19.1825 0 22.148 0.929173 24.64 2.53103V12.8257ZM29.12 6.83976V12.8257C29.12 17.7009 23.2011 20.1149 19.7916 16.6302L6.54488 3.09128C2.57636 6.00298 0 10.7006 0 16C0 19.407 1.0649 22.5653 2.88 25.1602V19.2063C2.88 14.3311 8.79893 11.9171 12.2084 15.4018L25.4369 28.9221C29.4157 26.0114 32 21.3075 32 16C32 12.593 30.9351 9.43467 29.12 6.83976ZM9.00619 18.5349L21.301 31.1009C19.642 31.6833 17.858 32 16 32C12.8175 32 9.85199 31.0708 7.36 29.469V19.2063C7.36 18.3459 8.40452 17.9199 9.00619 18.5349Z" fill="url(#paint0_radial_57_2)"/>
<path d="M24.64 12.8257C24.64 13.6861 23.5955 14.1121 22.9938 13.4971L10.6757 0.907252C12.3413 0.31967 14.1333 0 16 0C19.1825 0 22.148 0.929173 24.64 2.53103V12.8257ZM29.12 6.83976V12.8257C29.12 17.7009 23.2011 20.1149 19.7916 16.6302L6.54488 3.09128C2.57636 6.00298 0 10.7006 0 16C0 19.407 1.0649 22.5653 2.88 25.1602V19.2063C2.88 14.3311 8.79893 11.9171 12.2084 15.4018L25.4369 28.9221C29.4157 26.0114 32 21.3075 32 16C32 12.593 30.9351 9.43467 29.12 6.83976ZM9.00619 18.5349L21.301 31.1009C19.642 31.6833 17.858 32 16 32C12.8175 32 9.85199 31.0708 7.36 29.469V19.2063C7.36 18.3459 8.40452 17.9199 9.00619 18.5349Z" fill="url(#paint1_linear_57_2)"/>
<path d="M24.64 12.8257C24.64 13.6861 23.5955 14.1121 22.9938 13.4971L10.6757 0.907252C12.3413 0.31967 14.1333 0 16 0C19.1825 0 22.148 0.929173 24.64 2.53103V12.8257ZM29.12 6.83976V12.8257C29.12 17.7009 23.2011 20.1149 19.7916 16.6302L6.54488 3.09128C2.57636 6.00298 0 10.7006 0 16C0 19.407 1.0649 22.5653 2.88 25.1602V19.2063C2.88 14.3311 8.79893 11.9171 12.2084 15.4018L25.4369 28.9221C29.4157 26.0114 32 21.3075 32 16C32 12.593 30.9351 9.43467 29.12 6.83976ZM9.00619 18.5349L21.301 31.1009C19.642 31.6833 17.858 32 16 32C12.8175 32 9.85199 31.0708 7.36 29.469V19.2063C7.36 18.3459 8.40452 17.9199 9.00619 18.5349Z" fill="url(#paint2_linear_57_2)"/>
</g>
<defs>
<radialGradient id="paint0_radial_57_2" cx="0" cy="0" r="1" gradientUnits="userSpaceOnUse" gradientTransform="translate(16 16) rotate(135) scale(22.6274)">
<stop offset="0.34" stop-color="white"/>
<stop offset="0.613333" stop-color="white"/>
<stop offset="0.766667" stop-color="white"/>
</radialGradient>
<linearGradient id="paint1_linear_57_2" x1="19.7333" y1="-1.06667" x2="16" y2="32" gradientUnits="userSpaceOnUse">
<stop offset="0.0851785" stop-color="white"/>
<stop offset="0.553333" stop-color="white" stop-opacity="0"/>
</linearGradient>
<linearGradient id="paint2_linear_57_2" x1="16" y1="0" x2="16" y2="32" gradientUnits="userSpaceOnUse">
<stop offset="0.546667" stop-color="white" stop-opacity="0"/>
<stop offset="1" stop-color="white" stop-opacity="0.6"/>
</linearGradient>
<clipPath id="clip0_57_2">
<rect width="115" height="32" fill="white"/>
</clipPath>
</defs>
</svg>
