<svg width="34" height="34" viewBox="0 0 34 34" fill="none"
  xmlns="http://www.w3.org/2000/svg">
  <path fillRule="evenodd" clipRule="evenodd" d="M26.0894 13.5802C26.0894 14.4911 24.9835 14.9422 24.3464 14.2911L11.3036 0.960619C13.0672 0.338474 14.9647 0 16.9412 0C20.3109 0 23.4508 0.98383 26.0894 2.67992V13.5802ZM30.8329 7.2421V13.5802C30.8329 18.7422 24.5658 21.2981 20.9558 17.6085L6.92987 3.27312C2.72791 6.35609 0 11.3301 0 16.9412C0 20.5486 1.12754 23.8927 3.04941 26.6403V20.336C3.04941 15.1741 9.31651 12.6181 12.9265 16.3078L26.9332 30.6234C31.1461 27.5415 33.8824 22.5609 33.8824 16.9412C33.8824 13.3337 32.7548 9.98965 30.8329 7.2421ZM9.53596 19.6252L22.554 32.9304C20.7974 33.547 18.9085 33.8824 16.9412 33.8824C13.5715 33.8824 10.4315 32.8985 7.79294 31.2024V20.336C7.79294 19.4251 8.8989 18.9741 9.53596 19.6252Z" fill="url(#paint0_radial_25660_8888)"/>
  <path fillRule="evenodd" clipRule="evenodd" d="M26.0894 13.5802C26.0894 14.4911 24.9835 14.9422 24.3464 14.2911L11.3036 0.960619C13.0672 0.338474 14.9647 0 16.9412 0C20.3109 0 23.4508 0.98383 26.0894 2.67992V13.5802ZM30.8329 7.2421V13.5802C30.8329 18.7422 24.5658 21.2981 20.9558 17.6085L6.92987 3.27312C2.72791 6.35609 0 11.3301 0 16.9412C0 20.5486 1.12754 23.8927 3.04941 26.6403V20.336C3.04941 15.1741 9.31651 12.6181 12.9265 16.3078L26.9332 30.6234C31.1461 27.5415 33.8824 22.5609 33.8824 16.9412C33.8824 13.3337 32.7548 9.98965 30.8329 7.2421ZM9.53596 19.6252L22.554 32.9304C20.7974 33.547 18.9085 33.8824 16.9412 33.8824C13.5715 33.8824 10.4315 32.8985 7.79294 31.2024V20.336C7.79294 19.4251 8.8989 18.9741 9.53596 19.6252Z" fill="url(#paint1_linear_25660_8888)"/>
  <path fillRule="evenodd" clipRule="evenodd" d="M26.0894 13.5802C26.0894 14.4911 24.9835 14.9422 24.3464 14.2911L11.3036 0.960619C13.0672 0.338474 14.9647 0 16.9412 0C20.3109 0 23.4508 0.98383 26.0894 2.67992V13.5802ZM30.8329 7.2421V13.5802C30.8329 18.7422 24.5658 21.2981 20.9558 17.6085L6.92987 3.27312C2.72791 6.35609 0 11.3301 0 16.9412C0 20.5486 1.12754 23.8927 3.04941 26.6403V20.336C3.04941 15.1741 9.31651 12.6181 12.9265 16.3078L26.9332 30.6234C31.1461 27.5415 33.8824 22.5609 33.8824 16.9412C33.8824 13.3337 32.7548 9.98965 30.8329 7.2421ZM9.53596 19.6252L22.554 32.9304C20.7974 33.547 18.9085 33.8824 16.9412 33.8824C13.5715 33.8824 10.4315 32.8985 7.79294 31.2024V20.336C7.79294 19.4251 8.8989 18.9741 9.53596 19.6252Z" fill="url(#paint2_linear_25660_8888)"/>
  <defs>
    <radialGradient id="paint0_radial_25660_8888" cx="0" cy="0" r="1" gradientUnits="userSpaceOnUse" gradientTransform="translate(16.9412 16.9412) rotate(135) scale(23.9584 23.9584)">
      <stop offset="0.34" stop-color="#FF006A"/>
      <stop offset="0.613333" stop-color="#E300BD"/>
      <stop offset="0.766667" stop-color="#FF4CE1"/>
    </radialGradient>
    <linearGradient id="paint1_linear_25660_8888" x1="20.8941" y1="-1.12941" x2="16.9412" y2="33.8824" gradientUnits="userSpaceOnUse">
      <stop offset="0.0851785" stop-color="#FFBA33"/>
      <stop offset="0.553333" stop-color="#FF006A" stop-opacity="0"/>
    </linearGradient>
    <linearGradient id="paint2_linear_25660_8888" x1="16.9412" y1="0" x2="16.9412" y2="33.8824" gradientUnits="userSpaceOnUse">
      <stop offset="0.546667" stop-opacity="0"/>
      <stop offset="1" stop-opacity="0.6"/>
    </linearGradient>
  </defs>
</svg>
