<svg xmlns="http://www.w3.org/2000/svg"  viewBox="0 0 50 50" width="50px" height="50px"><path d="M 5 4 A 1.0001 1.0001 0 0 0 4 5 L 4 24 L 4 45 A 1.0001 1.0001 0 0 0 4 45.005859 A 1.0001 1.0001 0 0 0 4.0039062 45.0625 A 1.0001 1.0001 0 0 0 4.0078125 45.111328 A 1.0001 1.0001 0 0 0 4.0097656 45.123047 A 1.0001 1.0001 0 0 0 4.0234375 45.212891 A 1.0001 1.0001 0 0 0 4.0449219 45.294922 A 1.0001 1.0001 0 0 0 4.0625 45.34375 A 1.0001 1.0001 0 0 0 4.0859375 45.402344 A 1.0001 1.0001 0 0 0 4.1289062 45.486328 A 1.0001 1.0001 0 0 0 4.15625 45.533203 A 1.0001 1.0001 0 0 0 4.1777344 45.568359 A 1.0001 1.0001 0 0 0 4.2167969 45.619141 A 1.0001 1.0001 0 0 0 4.2402344 45.648438 A 1.0001 1.0001 0 0 0 4.28125 45.693359 A 1.0001 1.0001 0 0 0 4.3066406 45.720703 A 1.0001 1.0001 0 0 0 4.3730469 45.777344 A 1.0001 1.0001 0 0 0 4.3789062 45.783203 A 1.0001 1.0001 0 0 0 4.4492188 45.833984 A 1.0001 1.0001 0 0 0 4.4628906 45.84375 A 1.0001 1.0001 0 0 0 4.4726562 45.849609 A 1.0001 1.0001 0 0 0 4.546875 45.890625 A 1.0001 1.0001 0 0 0 4.6386719 45.931641 A 1.0001 1.0001 0 0 0 4.6992188 45.953125 A 1.0001 1.0001 0 0 0 4.7421875 45.964844 A 1.0001 1.0001 0 0 0 4.7480469 45.966797 A 1.0001 1.0001 0 0 0 4.8300781 45.984375 A 1.0001 1.0001 0 0 0 4.890625 45.992188 A 1.0001 1.0001 0 0 0 4.9453125 45.998047 A 1.0001 1.0001 0 0 0 4.9648438 45.998047 A 1.0001 1.0001 0 0 0 5 46 A 1.0001 1.0001 0 0 0 5.0292969 46 L 45 46 A 1.0001 1.0001 0 0 0 45.707031 44.292969 L 26.414062 25 L 45.707031 5.7070312 A 1.0001 1.0001 0 0 0 45 4 L 24 4 L 5 4 z M 6 6 L 21.585938 6 L 6 21.585938 L 6 6 z M 24.414062 6 L 42.585938 6 L 24.292969 24.292969 L 6 42.585938 L 6 24.414062 L 24.414062 6 z M 25 26.414062 L 42.585938 44 L 7.4140625 44 L 25 26.414062 z"/></svg>