<svg width="28" height="28" viewBox="0 0 28 28" fill="none" xmlns="http://www.w3.org/2000/svg">
<path d="M13.9521 23.9688C14.0411 24.0631 14.3321 25.0716 14.3955 25.2656L15.793 25.2676C15.4657 25.5823 15.0108 25.8135 14.6709 26.125C14.8163 26.5675 14.9813 27.0151 15.0986 27.4658C14.724 27.2053 14.3491 26.9235 13.9883 26.6436C13.9552 26.6424 13.9411 26.6457 13.9121 26.6621C13.8206 26.7138 13.7326 26.7935 13.6475 26.8564C13.3776 27.0561 13.1088 27.2746 12.8291 27.458C12.9391 27.0089 13.1653 26.5808 13.2549 26.126C13.0308 25.9229 12.7693 25.7501 12.5244 25.5732C12.395 25.4798 12.2514 25.3923 12.1445 25.2725C12.602 25.2531 13.0626 25.2903 13.5205 25.2705C13.7126 24.8561 13.8024 24.3976 13.9521 23.9688ZM8.1875 22.4219C8.21532 22.4488 8.56034 23.5781 8.60449 23.7188C9.0592 23.7691 9.53166 23.6967 9.98926 23.7383C9.88895 23.83 9.76608 23.9037 9.65625 23.9844C9.40215 24.174 9.14477 24.3597 8.88477 24.541C9.00593 25.0149 9.18949 25.4662 9.32031 25.9355C8.95422 25.6334 8.5546 25.3779 8.19141 25.0723C8.10872 25.1091 8.02871 25.1832 7.9541 25.2363C7.67599 25.4344 7.34841 25.7086 7.06348 25.8711C7.10013 25.5974 7.37239 24.8871 7.47852 24.5947C7.35252 24.4604 7.18606 24.3526 7.03906 24.2432C6.80852 24.0714 6.57816 23.899 6.33984 23.7383C6.80361 23.7211 7.26748 23.7174 7.73145 23.7275C7.87203 23.3664 8.00639 22.7255 8.1875 22.4219ZM19.8096 22.3828C19.8766 22.5273 19.9123 22.6979 19.959 22.8506C20.0476 23.1382 20.1378 23.4256 20.2305 23.7119C20.6918 23.7356 21.1637 23.7128 21.626 23.7148C21.2976 24.0376 20.8398 24.233 20.5137 24.5586C20.5647 24.7482 20.9066 25.7199 20.9121 25.8477C20.9007 25.8495 20.8892 25.855 20.8779 25.8525C20.8049 25.8369 20.0574 25.2483 19.918 25.1543C19.8581 25.1139 19.82 25.085 19.7461 25.0996C19.5613 25.248 19.3672 25.386 19.1777 25.5283C19.0028 25.6598 18.8295 25.8039 18.6406 25.9141C18.8387 25.4899 18.9402 25.0152 19.1133 24.5791C18.7636 24.261 18.3384 24.0327 17.9805 23.7246C18.4434 23.6935 18.9163 23.7179 19.3809 23.7139C19.4288 23.5148 19.5049 23.3195 19.5664 23.124C19.6437 22.8782 19.7104 22.6204 19.8096 22.3828ZM20.9141 25.8545C20.9143 25.8526 20.9122 25.8504 20.9121 25.8477H20.9141V25.8545ZM3.91406 18.0938C4.00632 18.2015 4.28133 19.2147 4.3457 19.4287C4.81519 19.4585 5.29988 19.4437 5.76953 19.4209C5.5271 19.6022 5.27995 19.7776 5.03613 19.957C4.89889 20.058 4.74544 20.1569 4.62695 20.2803C4.77156 20.7258 4.92137 21.1696 5.07715 21.6113C4.67831 21.3664 4.32988 21.0346 3.92969 20.7979C3.75612 20.865 2.9704 21.4656 2.75684 21.6182C2.93056 21.1802 3.07756 20.7361 3.21484 20.2852C3.08229 20.1434 2.89731 20.0297 2.74121 19.915C2.51137 19.7487 2.28497 19.5767 2.0625 19.4004C2.48118 19.4663 3.06873 19.4632 3.49121 19.4219C3.60989 18.9759 3.78018 18.5369 3.91406 18.0938ZM24.0566 18.0938C24.1248 18.2297 24.1575 18.3981 24.2021 18.5439C24.2928 18.8403 24.382 19.1397 24.4912 19.4297C24.9528 19.4351 25.4138 19.4459 25.875 19.4199C25.5483 19.7455 25.0907 19.9427 24.7607 20.2627C24.8445 20.5034 24.9098 20.7531 24.9873 20.9961C25.0521 21.1993 25.1413 21.4036 25.1758 21.6143C24.809 21.3335 24.4384 21.0522 24.0576 20.791C23.8948 20.8456 23.3752 21.2767 23.1973 21.4111C23.1242 21.4664 23.0474 21.5406 22.9619 21.5723C22.917 21.4169 23.3213 20.5637 23.3184 20.3105C23.3152 20.1655 22.3814 19.5802 22.2188 19.4219C22.6857 19.4206 23.1515 19.4426 23.6191 19.4336C23.7685 18.9881 23.914 18.5414 24.0566 18.0938ZM25.6318 12.25C25.6478 12.2729 25.9786 13.3967 26.0332 13.5645C26.5103 13.5722 26.9878 13.5708 27.4648 13.5596L26.3154 14.3945C26.4125 14.856 26.6066 15.3103 26.749 15.7598C26.4595 15.5746 25.8987 15.1907 25.6689 14.9521C25.6482 14.9306 25.6467 14.9335 25.6191 14.9268C25.2311 15.2039 24.8275 15.4689 24.46 15.7734C24.5178 15.6065 24.8925 14.5257 24.8711 14.4355C24.841 14.3119 23.9059 13.6892 23.75 13.5645C24.2198 13.5554 24.6903 13.5697 25.1602 13.5625C25.2914 13.2501 25.4787 12.464 25.6318 12.25ZM2.39355 12.2656C2.422 12.3058 2.73958 13.3776 2.81055 13.5605C3.28323 13.5778 3.76234 13.5721 4.23535 13.5605C3.84376 13.8353 3.45874 14.1192 3.08105 14.4131C3.21325 14.8642 3.35901 15.3116 3.51758 15.7539C3.11255 15.5212 2.77224 15.1783 2.38086 14.9268C2.23803 15.0022 2.10715 15.1221 1.97656 15.2178C1.72669 15.4009 1.47363 15.5772 1.22949 15.7686C1.31993 15.502 1.63752 14.6543 1.64258 14.4375C1.59629 14.3095 0.70281 13.7065 0.527344 13.5635C0.99747 13.558 1.46874 13.5764 1.93848 13.5605C2.02746 13.3009 2.28742 12.416 2.39355 12.2656ZM24.0547 6.375C24.1407 6.49496 24.176 6.71245 24.2188 6.85645C24.301 7.13356 24.375 7.41995 24.501 7.68066C24.9568 7.68878 25.4126 7.68403 25.8682 7.66504C25.6688 7.9018 25.0432 8.30278 24.7627 8.51172C24.8816 8.97322 25.0701 9.41515 25.1934 9.875C25.0629 9.80288 24.9428 9.69316 24.8223 9.60449L24.0527 9.03809C23.9679 9.07638 23.8847 9.15828 23.8086 9.21484C23.5604 9.39927 23.3114 9.60371 23.0557 9.77539C23.0174 9.80107 22.993 9.81992 22.9463 9.81152C23.0512 9.38041 23.218 8.96733 23.3535 8.5459C23.0417 8.24933 22.5464 7.94465 22.1953 7.66699C22.6673 7.67353 23.1393 7.67492 23.6113 7.67188C23.7484 7.38485 23.8327 7.04211 23.9277 6.7373C23.9652 6.61721 23.9948 6.48512 24.0547 6.375ZM3.93555 6.35938C3.99947 6.47966 4.0245 6.64787 4.06543 6.78027C4.15916 7.08132 4.25756 7.38104 4.36133 7.67871C4.83698 7.67431 5.31765 7.70056 5.79199 7.66602C5.45755 7.96732 4.9308 8.24171 4.62402 8.54199C4.78495 8.97763 4.90614 9.4267 5.07324 9.86035C4.79921 9.73898 4.24001 9.25268 3.94336 9.0625C3.76273 9.1031 3.01713 9.73192 2.76758 9.86914C2.96873 9.45338 3.07422 8.99154 3.22949 8.55664C2.88604 8.22547 2.44971 8.00459 2.10547 7.67285C2.56751 7.69285 3.03363 7.68126 3.49609 7.67676C3.58765 7.41191 3.68268 7.14699 3.76758 6.87988C3.82267 6.70654 3.8665 6.52768 3.93555 6.35938ZM8.19922 2.1416C8.2519 2.24209 8.27587 2.39772 8.31152 2.50781C8.40634 2.80086 8.50534 3.0952 8.61523 3.38281C9.08499 3.41166 9.57922 3.40904 10.0488 3.37402C9.82248 3.52802 9.60673 3.70112 9.38672 3.86426C9.21931 3.98836 9.04493 4.10282 8.88086 4.23145C8.97655 4.69609 9.21265 5.13322 9.2998 5.59863C8.94441 5.31931 8.58125 5.04988 8.21094 4.79102L8.15625 4.78223C7.99151 4.84666 7.21817 5.45698 7.03906 5.59863C7.09725 5.34468 7.44999 4.4457 7.43066 4.2832C7.4245 4.23168 7.39969 4.19057 7.36328 4.15527C7.26295 4.05819 7.12553 3.9793 7.01172 3.89844C6.78131 3.73477 6.55014 3.56991 6.33203 3.38965C6.79935 3.38822 7.26709 3.40417 7.73438 3.39648C7.89999 2.97636 8.02053 2.53036 8.16309 2.10156C8.17795 2.11377 8.18974 2.12371 8.19922 2.1416ZM19.7295 2.07031C19.8375 2.16377 20.1149 3.17179 20.1826 3.38672C20.6572 3.40862 21.132 3.4068 21.6064 3.38184C21.2683 3.69026 20.8412 3.96187 20.4697 4.23242C20.582 4.64624 20.8204 5.19301 20.8848 5.58984C20.5226 5.32842 20.1667 5.05449 19.8086 4.78711L19.752 4.7793C19.5841 4.84531 18.8294 5.43421 18.6211 5.59375C18.7288 5.30007 18.8173 5.00136 18.9082 4.70215C18.9525 4.55635 19.0129 4.40893 19.0342 4.25781C18.9833 4.14424 18.0765 3.51277 17.9062 3.39648C18.3819 3.36715 18.8617 3.41484 19.3389 3.38672C19.4721 2.94472 19.6242 2.52132 19.7295 2.07031ZM13.9492 0.53125C14.0438 0.645303 14.3241 1.60754 14.4043 1.83008C14.8665 1.84577 15.3333 1.83486 15.7959 1.83496C15.6743 1.94497 15.5268 2.03774 15.3945 2.13477C15.1535 2.31326 14.9112 2.48998 14.667 2.66406C14.7749 3.11887 15.0098 3.5548 15.0928 4.01367C14.731 3.74534 14.3674 3.47949 14.0029 3.21484C13.9994 3.21391 13.9958 3.21217 13.9922 3.21191C13.8761 3.20361 13.011 3.88462 12.8486 4.01074C12.8689 3.85482 12.931 3.69945 12.9805 3.55078C13.0751 3.26653 13.1805 2.98289 13.2471 2.69043C12.994 2.38379 12.3689 2.11765 12.1445 1.82617C12.6016 1.83862 13.0689 1.86354 13.5254 1.83301C13.718 1.44253 13.8106 0.947222 13.9492 0.53125Z" fill="white"/>
<path d="M9.35533 13.5875C9.32749 13.4907 9.28838 13.4052 9.238 13.331C9.18762 13.2554 9.12597 13.1918 9.05305 13.1401C8.98146 13.087 8.89927 13.0466 8.80646 13.0188C8.71499 12.9909 8.61357 12.977 8.5022 12.977C8.29406 12.977 8.1111 13.0287 7.95334 13.1321C7.7969 13.2355 7.67493 13.386 7.58743 13.5835C7.49993 13.7797 7.45618 14.0197 7.45618 14.3034C7.45618 14.5871 7.49927 14.8284 7.58544 15.0273C7.67161 15.2261 7.79358 15.3779 7.95135 15.4827C8.10911 15.5861 8.29538 15.6378 8.51016 15.6378C8.70504 15.6378 8.87143 15.6033 9.0093 15.5344C9.14851 15.4641 9.25457 15.3653 9.32749 15.2381C9.40173 15.1108 9.43885 14.9603 9.43885 14.7866L9.61385 14.8125H8.56385V14.1642H10.2681V14.6773C10.2681 15.0352 10.1925 15.3428 10.0414 15.6C9.89027 15.8559 9.68213 16.0534 9.41697 16.1926C9.15182 16.3305 8.84822 16.3994 8.50618 16.3994C8.12436 16.3994 7.78894 16.3152 7.49993 16.1469C7.21091 15.9772 6.98554 15.7366 6.82379 15.425C6.66338 15.1121 6.58317 14.7409 6.58317 14.3114C6.58317 13.9812 6.63089 13.6869 6.72635 13.4284C6.82313 13.1686 6.95836 12.9485 7.13203 12.7682C7.30571 12.5879 7.50788 12.4507 7.73857 12.3565C7.96925 12.2624 8.21915 12.2153 8.48828 12.2153C8.71896 12.2153 8.93374 12.2491 9.1326 12.3168C9.33146 12.383 9.50779 12.4772 9.66158 12.5991C9.81669 12.7211 9.9433 12.8663 10.0414 13.0347C10.1395 13.2017 10.2025 13.386 10.2303 13.5875H9.35533ZM12.3587 16.3438H10.9149V12.271H12.3706C12.7803 12.271 13.1329 12.3526 13.4286 12.5156C13.7242 12.6774 13.9516 12.91 14.1107 13.2136C14.2711 13.5172 14.3513 13.8805 14.3513 14.3034C14.3513 14.7277 14.2711 15.0922 14.1107 15.3972C13.9516 15.7021 13.7229 15.9361 13.4246 16.0991C13.1276 16.2622 12.7723 16.3438 12.3587 16.3438ZM11.776 15.606H12.3229C12.5774 15.606 12.7915 15.5609 12.9652 15.4707C13.1402 15.3793 13.2714 15.2381 13.3589 15.0472C13.4478 14.8549 13.4922 14.607 13.4922 14.3034C13.4922 14.0025 13.4478 13.7565 13.3589 13.5656C13.2714 13.3747 13.1409 13.2342 12.9672 13.144C12.7935 13.0539 12.5794 13.0088 12.3249 13.0088H11.776V15.606ZM14.9891 16.3438V12.271H16.596C16.9049 12.271 17.168 12.33 17.3854 12.448C17.6029 12.5647 17.7686 12.7271 17.8826 12.9352C17.9979 13.142 18.0556 13.3807 18.0556 13.6511C18.0556 13.9216 17.9973 14.1602 17.8806 14.367C17.7639 14.5739 17.5949 14.7349 17.3735 14.8503C17.1534 14.9656 16.887 15.0233 16.5741 15.0233H15.5499V14.3332H16.4349C16.6006 14.3332 16.7371 14.3047 16.8445 14.2477C16.9532 14.1894 17.0341 14.1092 17.0871 14.0071C17.1415 13.9037 17.1687 13.785 17.1687 13.6511C17.1687 13.5159 17.1415 13.3979 17.0871 13.2972C17.0341 13.1951 16.9532 13.1162 16.8445 13.0605C16.7358 13.0035 16.5979 12.975 16.4309 12.975H15.8502V16.3438H14.9891ZM18.6149 16.3438V12.271H20.2217C20.5293 12.271 20.7918 12.326 21.0092 12.4361C21.228 12.5448 21.3944 12.6992 21.5084 12.8994C21.6237 13.0983 21.6814 13.3323 21.6814 13.6014C21.6814 13.8719 21.6231 14.1045 21.5064 14.2994C21.3897 14.493 21.2207 14.6415 20.9993 14.7449C20.7792 14.8483 20.5127 14.9 20.1999 14.9H19.124V14.208H20.0607C20.225 14.208 20.3616 14.1854 20.4703 14.1403C20.579 14.0953 20.6599 14.0277 20.7129 13.9375C20.7673 13.8473 20.7945 13.7353 20.7945 13.6014C20.7945 13.4662 20.7673 13.3522 20.7129 13.2594C20.6599 13.1666 20.5784 13.0963 20.4683 13.0486C20.3596 12.9995 20.2224 12.975 20.0567 12.975H19.476V16.3438H18.6149ZM20.8143 14.4903L21.8266 16.3438H20.876L19.8857 14.4903H20.8143Z" fill="white"/>
</svg>
