<svg width="24" height="28" viewBox="0 0 24 28" fill="none" xmlns="http://www.w3.org/2000/svg">
<path d="M12.168 0C18.681 0.00644101 23.9554 5.29165 23.9492 11.8047C23.9428 18.3176 18.6575 23.5921 12.1445 23.5859C5.63983 23.5796 0.368245 18.3071 0.363287 11.8018C0.357104 5.29012 5.63004 0.00643976 12.1416 0H12.168ZM15.7695 18.7598C13.4291 17.9273 10.8739 17.9288 8.53419 18.7627C8.54024 18.7834 8.54468 18.801 8.54883 18.8164C8.55595 18.8426 8.56206 18.8629 8.56934 18.8818C8.84895 19.6306 9.22273 20.3404 9.68165 20.9951C9.98183 21.4272 10.3494 21.809 10.7705 22.125C11.6546 22.77 12.6138 22.7789 13.5068 22.1504C13.8125 21.9319 14.0884 21.6739 14.3281 21.3848C14.9382 20.6298 15.4192 19.7785 15.751 18.8662C15.7606 18.8312 15.7661 18.7954 15.7695 18.7598ZM7.59083 19.1523C6.87792 19.4834 6.20422 19.8938 5.58399 20.376C6.71736 21.2517 8.01862 21.886 9.40821 22.2363C9.01676 21.7899 8.67596 21.3003 8.39161 20.7783C8.19703 20.4139 8.01794 20.041 7.83692 19.6631C7.75596 19.4941 7.67444 19.3232 7.59083 19.1523ZM16.4775 19.6602C16.2965 20.0357 16.1187 20.4046 15.9277 20.7666C15.6427 21.2886 15.3031 21.7795 14.915 22.2314C16.3005 21.8825 17.5993 21.2511 18.7285 20.376C18.1083 19.8938 17.435 19.4837 16.7227 19.1533C16.6392 19.3235 16.5583 19.4926 16.4775 19.6602ZM4.83008 3.86035C0.0790639 8.19312 0.278923 15.6445 4.83008 19.7217C5.59193 19.1233 6.42146 18.6165 7.30079 18.2119C7.12425 17.6397 6.97706 17.0571 6.86231 16.4697H7.83887L8.20313 17.8486C10.76 16.9398 13.5528 16.9385 16.1104 17.8467L16.4775 16.4639C16.5294 16.4639 16.5804 16.4632 16.6299 16.4629C16.7424 16.462 16.8504 16.462 16.959 16.4658C17.1204 16.4528 17.2828 16.4609 17.4414 16.4932C17.3308 17.0667 17.1914 17.6352 17.0225 18.1943C17.1589 18.2696 17.2954 18.3424 17.4307 18.415C17.7271 18.5742 18.0193 18.7317 18.3018 18.9053C18.5908 19.0823 18.8697 19.276 19.1475 19.4688C19.2651 19.5503 19.3828 19.6316 19.501 19.7119C24.2822 15.3304 23.9841 7.87795 19.4824 3.86328C18.7227 4.4609 17.8951 4.96786 17.0166 5.37109C17.1835 5.9623 17.3422 6.52897 17.4473 7.11328H16.4688C16.4492 7.0363 16.4299 6.95987 16.4111 6.88477C16.3726 6.7305 16.3351 6.57961 16.2949 6.42969C16.2434 6.19615 16.175 5.96735 16.0898 5.74414C13.5386 6.64805 10.7537 6.64602 8.20313 5.73926L7.83399 7.12695H7.35157C7.23215 7.12589 7.11254 7.12407 6.98047 7.12207L6.84376 7.12012L7.28809 5.36621C6.4116 4.96437 5.58639 4.45932 4.83008 3.86035ZM16.0732 8.86133C16.7781 8.59345 17.5383 8.49986 18.2871 8.58984C18.7171 8.61874 19.1386 8.72134 19.5342 8.8916C20.4718 9.27833 21.1273 10.1437 21.2441 11.1514C21.2658 11.2994 21.2761 11.4492 21.2871 11.5986C21.2921 11.6669 21.2977 11.7357 21.3037 11.8037C21.3099 12.3525 21.1869 12.8955 20.9473 13.3887C20.6395 13.9912 20.1222 14.4607 19.4922 14.708C19.0349 14.8892 18.5502 14.9899 18.0586 15.0078C17.4857 15.0532 16.9089 14.9915 16.3594 14.8252C15.1702 14.4439 14.4577 13.6415 14.2764 12.3926C14.1865 11.8239 14.2228 11.2424 14.3828 10.6895C14.624 9.84616 15.2512 9.16843 16.0732 8.86133ZM10.0615 8.57422C10.8137 8.51856 11.569 8.65465 12.2539 8.9707C12.27 8.9783 12.2866 8.98503 12.3086 8.99316C12.3202 8.99747 12.3334 9.00191 12.3486 9.00781L12.5156 8.72949H13.3633V10.8076C13.3016 10.8081 13.2393 10.8089 13.1768 10.8096C13.0802 10.8107 12.9828 10.8121 12.8857 10.8125H12.3828C12.365 10.7631 12.3491 10.7174 12.334 10.6748C12.3148 10.6208 12.2968 10.5704 12.2783 10.5205C12.0543 9.91899 11.6037 9.61253 10.9815 9.5459C10.7445 9.50952 10.502 9.52313 10.2705 9.58496C10.1188 9.62886 9.98184 9.71215 9.87403 9.82812C9.65215 10.0734 9.6764 10.3497 9.95801 10.5215C10.1222 10.6183 10.2994 10.6921 10.4834 10.7402C10.6846 10.7955 10.8882 10.8423 11.0918 10.8896C11.2803 10.9335 11.4694 10.9782 11.6563 11.0283C12.1081 11.1376 12.5399 11.317 12.9356 11.5615C13.3607 11.826 13.6326 12.279 13.667 12.7783C13.7391 13.2853 13.5973 13.7995 13.2744 14.1973C13.0292 14.485 12.7101 14.7002 12.3516 14.8203C11.8721 14.9817 11.3642 15.0471 10.8594 15.0107C10.2653 14.9784 9.68322 14.828 9.14747 14.5684C9.13169 14.561 9.11443 14.5549 9.09278 14.5479C9.08252 14.5445 9.07127 14.5405 9.0586 14.5361L8.83008 14.8574H8.0254V12.6309C8.16404 12.6096 8.30537 12.6037 8.44532 12.6133C8.53843 12.6109 8.63189 12.6117 8.73047 12.6123C8.77588 12.6126 8.82281 12.6123 8.8711 12.6123C8.87928 12.6337 8.88677 12.6552 8.89454 12.6758C8.91352 12.7261 8.93217 12.7745 8.95215 12.8223C9.23238 13.4899 9.70271 13.9376 10.4287 14.0771C10.6698 14.1328 10.9208 14.1265 11.1592 14.0605C11.2897 14.022 11.4117 13.9611 11.5195 13.8779C11.7277 13.7296 11.7766 13.4396 11.6289 13.2314C11.5987 13.1889 11.5611 13.1523 11.5186 13.1221C11.3434 12.9929 11.1485 12.8913 10.9424 12.8213C10.7108 12.7407 10.4751 12.6726 10.2393 12.6045C10.0689 12.5554 9.89831 12.506 9.7295 12.4521C9.44858 12.3677 9.17231 12.2683 8.90235 12.1543C8.3893 11.9263 8.01353 11.555 7.89942 10.9912C7.7174 10.0906 8.09614 9.30666 8.92188 8.87109C9.2756 8.6905 9.6652 8.59002 10.0615 8.57422ZM7.28126 8.75391C7.32799 9.02441 7.33212 9.30132 7.29297 9.57324C7.27934 9.57459 7.26502 9.57666 7.25098 9.57812C7.21431 9.5819 7.17585 9.58541 7.1377 9.58789C7.10672 9.58993 7.07438 9.5902 7.042 9.58984C7.01924 9.58955 6.99622 9.58926 6.97364 9.58984C6.60845 9.60289 6.52156 9.68077 6.52149 10.041C6.51801 11.202 6.51801 12.3635 6.52149 13.5244C6.52285 13.8966 6.61033 13.9774 6.98438 13.9844H7.30567V14.8213H3.72461V13.9844C3.75795 13.9844 3.79136 13.9842 3.82422 13.9844C3.90026 13.9848 3.97558 13.9853 4.04981 13.9834C4.12455 13.9834 4.19939 13.9772 4.27344 13.9648C4.38675 13.9538 4.47719 13.8643 4.49024 13.751C4.5067 13.6638 4.51834 13.5761 4.52247 13.4883C4.52453 12.3548 4.52453 11.2203 4.52247 10.0869C4.52178 9.68572 4.42561 9.59375 4.02442 9.58691H3.72461V8.75391H7.28126ZM17.7773 9.47266C17.4057 9.45414 17.0565 9.65394 16.8848 9.98438C16.7638 10.2145 16.6853 10.4641 16.6523 10.7217C16.5562 11.3564 16.5447 12.0013 16.6182 12.6387C16.6409 12.9311 16.7116 13.2185 16.8262 13.4883C17.0473 14.0056 17.6468 14.2465 18.1641 14.0254C18.3914 13.9278 18.5755 13.7509 18.6826 13.5283C18.7458 13.3924 18.7954 13.2508 18.8291 13.1045C18.9218 12.6766 18.9678 12.2412 18.9678 11.8037C18.9621 11.7167 18.957 11.6293 18.9522 11.542C18.9407 11.3367 18.9289 11.1305 18.9063 10.9268C18.8822 10.5991 18.7939 10.2805 18.6455 9.9873C18.4814 9.66101 18.1421 9.45964 17.7773 9.47266ZM13.3106 1.30664C12.6464 0.876006 11.7982 0.85265 11.1113 1.24609C10.6696 1.49404 10.2801 1.82539 9.96485 2.22168C9.45787 2.8482 9.0444 3.54565 8.73731 4.29102C8.68872 4.4034 8.64297 4.51702 8.59473 4.63672V4.6377C8.57148 4.69538 8.54742 4.75437 8.52247 4.81543C10.8657 5.65628 13.4275 5.65929 15.7715 4.82324C15.766 4.78477 15.7574 4.74677 15.7471 4.70898C15.4477 3.90202 15.0372 3.14094 14.5283 2.44727C14.2006 1.99181 13.7866 1.6041 13.3106 1.30664ZM14.9063 1.34863C15.701 2.2588 16.2465 3.30602 16.6875 4.42773C17.209 4.25158 18.5157 3.44207 18.6982 3.18359C17.5737 2.31804 16.2829 1.69348 14.9063 1.34863ZM9.38965 1.35645C8.01164 1.70267 6.71925 2.33024 5.59473 3.19922C5.99876 3.57502 7.24892 4.32513 7.63086 4.41992C8.04024 3.30709 8.63472 2.27145 9.38965 1.35645Z" fill="white"/>
<path d="M6.7463 27.3203V26.9691L7.67796 26.0558C7.76707 25.9658 7.84132 25.8859 7.90072 25.816C7.96012 25.7461 8.00468 25.6784 8.03438 25.6129C8.06408 25.5474 8.07893 25.4775 8.07893 25.4033C8.07893 25.3185 8.05971 25.246 8.02127 25.1857C7.98284 25.1246 7.92999 25.0774 7.86272 25.0442C7.79546 25.011 7.71902 24.9944 7.63341 24.9944C7.54518 24.9944 7.46787 25.0128 7.40148 25.0495C7.33508 25.0853 7.28354 25.1364 7.24685 25.2028C7.21104 25.2692 7.19313 25.3482 7.19313 25.44H6.73057C6.73057 25.2696 6.76945 25.1215 6.84719 24.9957C6.92494 24.8699 7.03196 24.7725 7.16823 24.7035C7.30538 24.6345 7.46263 24.6 7.63996 24.6C7.81992 24.6 7.97803 24.6336 8.11431 24.7009C8.25059 24.7682 8.35629 24.8603 8.43142 24.9774C8.50742 25.0945 8.54542 25.2281 8.54542 25.3784C8.54542 25.4788 8.5262 25.5775 8.48776 25.6745C8.44932 25.7715 8.38162 25.8789 8.28466 25.9969C8.18856 26.1148 8.0536 26.2576 7.87976 26.4253L7.4172 26.8958V26.9141H8.58604V27.3203H6.7463ZM9.06259 27.3203L10.2039 25.0613V25.0429H8.87914V24.6367H10.7071V25.0521L9.56708 27.3203H9.06259ZM11.9905 27.3714C11.7747 27.3714 11.5895 27.3168 11.4349 27.2076C11.2811 27.0976 11.1628 26.939 11.0798 26.732C10.9977 26.5241 10.9566 26.2738 10.9566 25.9811C10.9575 25.6885 10.999 25.4395 11.0811 25.2342C11.1641 25.0281 11.2825 24.8708 11.4362 24.7625C11.5908 24.6542 11.7756 24.6 11.9905 24.6C12.2054 24.6 12.3901 24.6542 12.5448 24.7625C12.6994 24.8708 12.8178 25.0281 12.8999 25.2342C12.9829 25.4404 13.0244 25.6894 13.0244 25.9811C13.0244 26.2746 12.9829 26.5254 12.8999 26.7333C12.8178 26.9403 12.6994 27.0984 12.5448 27.2076C12.391 27.3168 12.2063 27.3714 11.9905 27.3714ZM11.9905 26.9613C12.1582 26.9613 12.2906 26.8787 12.3875 26.7136C12.4854 26.5476 12.5343 26.3035 12.5343 25.9811C12.5343 25.768 12.512 25.5889 12.4675 25.4439C12.4229 25.2989 12.36 25.1897 12.2788 25.1163C12.1975 25.042 12.1014 25.0049 11.9905 25.0049C11.8236 25.0049 11.6917 25.0879 11.5948 25.2539C11.4978 25.419 11.4489 25.6614 11.448 25.9811C11.4471 26.1952 11.4685 26.3751 11.5122 26.521C11.5568 26.6669 11.6197 26.777 11.7009 26.8512C11.7821 26.9246 11.8787 26.9613 11.9905 26.9613ZM14.3779 27.3714C14.1621 27.3714 13.9769 27.3168 13.8223 27.2076C13.6685 27.0976 13.5502 26.939 13.4672 26.732C13.3851 26.5241 13.344 26.2738 13.344 25.9811C13.3449 25.6885 13.3864 25.4395 13.4685 25.2342C13.5515 25.0281 13.6698 24.8708 13.8236 24.7625C13.9782 24.6542 14.163 24.6 14.3779 24.6C14.5928 24.6 14.7775 24.6542 14.9321 24.7625C15.0868 24.8708 15.2051 25.0281 15.2873 25.2342C15.3702 25.4404 15.4117 25.6894 15.4117 25.9811C15.4117 26.2746 15.3702 26.5254 15.2873 26.7333C15.2051 26.9403 15.0868 27.0984 14.9321 27.2076C14.7784 27.3168 14.5936 27.3714 14.3779 27.3714ZM14.3779 26.9613C14.5456 26.9613 14.6779 26.8787 14.7749 26.7136C14.8727 26.5476 14.9217 26.3035 14.9217 25.9811C14.9217 25.768 14.8994 25.5889 14.8548 25.4439C14.8103 25.2989 14.7474 25.1897 14.6661 25.1163C14.5849 25.042 14.4888 25.0049 14.3779 25.0049C14.211 25.0049 14.0791 25.0879 13.9821 25.2539C13.8852 25.419 13.8363 25.6614 13.8354 25.9811C13.8345 26.1952 13.8559 26.3751 13.8996 26.521C13.9441 26.6669 14.007 26.777 14.0883 26.8512C14.1695 26.9246 14.266 26.9613 14.3779 26.9613ZM16.8648 24.6367V27.3203H16.3787V25.1097H16.363L15.7353 25.5107V25.0652L16.4023 24.6367H16.8648Z" fill="white" fill-opacity="0.8"/>
</svg>
