<svg width="28" height="28" viewBox="0 0 28 28" fill="none" xmlns="http://www.w3.org/2000/svg">
<path d="M13.9961 0C21.7281 0 27.9961 6.26801 27.9961 14C27.9961 21.732 21.7281 28 13.9961 28C6.26411 28 -0.00390625 21.732 -0.00390625 14C-0.00390625 6.26801 6.26411 0 13.9961 0ZM13.9971 1.79688C7.25478 1.79688 1.78906 7.26259 1.78906 14.0049C1.78907 20.7472 7.25478 26.2129 13.9971 26.2129C20.7394 26.2129 26.2051 20.7472 26.2051 14.0049C26.2051 7.26259 20.7394 1.79688 13.9971 1.79688Z" fill="white" fill-opacity="0.6"/>
<path d="M7.58887 16.2422C7.88902 16.2422 8.15117 16.2928 8.375 16.3955C8.60008 16.4982 8.77527 16.6413 8.90039 16.8242C9.02553 17.0073 9.09077 17.2199 9.09473 17.4609H8.27441C8.25861 17.3015 8.19018 17.1781 8.07031 17.0898C7.95051 17.0017 7.7883 16.9571 7.58301 16.957C7.44354 16.957 7.32559 16.9772 7.22949 17.0166C7.13333 17.0548 7.05919 17.1083 7.00781 17.1768C6.95792 17.2451 6.93269 17.3225 6.93262 17.4092C6.92998 17.4816 6.94558 17.5456 6.97852 17.5996C7.01269 17.6533 7.05918 17.6999 7.11816 17.7393C7.17744 17.7775 7.2465 17.8109 7.32422 17.8398C7.40188 17.8675 7.48506 17.8914 7.57324 17.9111L7.93652 17.998C8.11301 18.0376 8.27534 18.0904 8.42285 18.1562C8.57023 18.2221 8.69773 18.3033 8.80566 18.3994C8.91366 18.4956 8.99737 18.6089 9.05664 18.7393C9.11719 18.8696 9.14806 19.019 9.14941 19.1875C9.1481 19.4351 9.08509 19.6503 8.95996 19.832C8.8362 20.0124 8.65717 20.1528 8.42285 20.2529C8.18978 20.3517 7.90826 20.4013 7.5791 20.4014C7.2526 20.4014 6.96787 20.351 6.72559 20.251C6.48464 20.1509 6.29582 20.0028 6.16016 19.8066C6.0258 19.6091 5.95483 19.3644 5.94824 19.0732H6.77637C6.78559 19.2089 6.82506 19.3222 6.89355 19.4131C6.96335 19.5026 7.05604 19.5701 7.17188 19.6162C7.28911 19.661 7.42181 19.6836 7.56934 19.6836C7.71403 19.6835 7.83971 19.6622 7.94629 19.6201C8.05421 19.578 8.13802 19.5194 8.19727 19.4443C8.2564 19.3693 8.28613 19.2829 8.28613 19.1855C8.28607 19.0949 8.25891 19.0188 8.20508 18.957C8.15239 18.8951 8.07443 18.8423 7.97168 18.7988C7.87029 18.7554 7.74608 18.7152 7.59863 18.6797L7.1582 18.5693C6.81703 18.4863 6.5472 18.3562 6.34961 18.1797C6.15222 18.0032 6.05435 17.7657 6.05566 17.4668C6.05436 17.2218 6.11926 17.0073 6.25098 16.8242C6.38396 16.6413 6.56624 16.4982 6.79785 16.3955C7.02969 16.2928 7.2938 16.2422 7.58887 16.2422ZM11.4375 16.2422C11.7944 16.2422 12.1155 16.324 12.4014 16.4873C12.6885 16.6493 12.9151 16.8848 13.0811 17.1943C13.2483 17.5039 13.332 17.8791 13.332 18.3203C13.332 18.7615 13.2483 19.1368 13.0811 19.4463C12.9151 19.7558 12.6885 19.9929 12.4014 20.1562C12.1156 20.3181 11.7943 20.3994 11.4375 20.3994C11.0781 20.3994 10.7555 20.3175 10.4697 20.1543C10.1839 19.991 9.95797 19.7539 9.79199 19.4443C9.62607 19.1348 9.54297 18.7602 9.54297 18.3203C9.54298 17.8791 9.62603 17.5039 9.79199 17.1943C9.95796 16.8848 10.1839 16.6493 10.4697 16.4873C10.7555 16.324 11.0779 16.2422 11.4375 16.2422ZM15.6689 16.2422C15.9032 16.2422 16.1202 16.2751 16.3203 16.3408C16.5219 16.4067 16.701 16.5024 16.8564 16.6289C17.0119 16.754 17.1379 16.9081 17.2354 17.0898C17.3341 17.2716 17.3972 17.4795 17.4248 17.7139H16.5596C16.5438 17.6019 16.5116 17.502 16.4629 17.415C16.4142 17.327 16.3516 17.2522 16.2754 17.1904C16.199 17.1285 16.1108 17.0808 16.0107 17.0479C15.9119 17.0149 15.8044 16.999 15.6885 16.999C15.4792 16.999 15.2969 17.0504 15.1416 17.1543C14.9862 17.257 14.8649 17.4079 14.7793 17.6055C14.6938 17.8016 14.6514 18.04 14.6514 18.3203C14.6514 18.6088 14.6937 18.8516 14.7793 19.0479C14.8662 19.2441 14.9882 19.3921 15.1436 19.4922C15.2989 19.5922 15.4786 19.6426 15.6826 19.6426C15.7972 19.6426 15.9035 19.627 16.001 19.5967C16.0996 19.5664 16.1874 19.5227 16.2637 19.4648C16.3401 19.4056 16.4031 19.3333 16.4531 19.249C16.5044 19.1648 16.5398 19.0688 16.5596 18.9609L17.4248 18.9648C17.4024 19.1504 17.3473 19.3296 17.2578 19.502C17.1696 19.6732 17.0496 19.8272 16.8994 19.9629C16.7507 20.0971 16.5728 20.2033 16.3662 20.2822C16.1608 20.3599 15.9284 20.3994 15.6689 20.3994C15.308 20.3994 14.9847 20.3176 14.7002 20.1543C14.4171 19.991 14.1929 19.7538 14.0283 19.4443C13.8651 19.1349 13.7842 18.7601 13.7842 18.3203C13.7842 17.8792 13.8664 17.5038 14.0322 17.1943C14.1981 16.885 14.4237 16.6493 14.708 16.4873C14.9925 16.324 15.3133 16.2422 15.6689 16.2422ZM20.4717 16.2422C20.7613 16.2422 21.0139 16.2928 21.2285 16.3955C21.4444 16.4969 21.6126 16.638 21.7324 16.8184C21.8523 16.9988 21.9121 17.2063 21.9121 17.4395C21.9121 17.5921 21.8818 17.7429 21.8213 17.8916C21.762 18.0404 21.6557 18.2059 21.5029 18.3877C21.3501 18.5682 21.1344 18.7852 20.8564 19.0381L20.2656 19.6162V19.6445H21.9648V20.3438H19.0801V19.7275L20.5205 18.3936C20.643 18.275 20.7461 18.1681 20.8291 18.0732C20.9133 17.9785 20.9771 17.8857 21.0205 17.7949C21.064 17.7027 21.0859 17.6028 21.0859 17.4961C21.0859 17.3778 21.0588 17.2759 21.0049 17.1904C20.9509 17.1035 20.8767 17.0363 20.7832 16.9902C20.6899 16.943 20.584 16.92 20.4658 16.9199C20.3422 16.9199 20.2337 16.9442 20.1416 16.9941C20.0494 17.0442 19.9778 17.1164 19.9277 17.21C19.8777 17.3035 19.8525 17.4149 19.8525 17.5439H19.041C19.041 17.2792 19.1009 17.0494 19.2207 16.8545C19.3406 16.6596 19.5086 16.509 19.7246 16.4023C19.9406 16.2956 20.1898 16.2422 20.4717 16.2422ZM11.4375 16.999C11.2309 16.999 11.0505 17.0491 10.8965 17.1504C10.7424 17.2518 10.6218 17.4014 10.5361 17.5977C10.452 17.7938 10.4102 18.0347 10.4102 18.3203C10.4102 18.6062 10.4518 18.8477 10.5361 19.0439C10.6218 19.2401 10.7424 19.3888 10.8965 19.4902C11.0505 19.5915 11.2308 19.6426 11.4375 19.6426C11.6442 19.6426 11.8245 19.5915 11.9785 19.4902C12.1326 19.3888 12.2526 19.2401 12.3369 19.0439C12.4225 18.8477 12.4648 18.6062 12.4648 18.3203C12.4648 18.0348 12.4224 17.7938 12.3369 17.5977C12.2526 17.4014 12.1326 17.2518 11.9785 17.1504C11.8245 17.0491 11.6441 16.999 11.4375 16.999ZM13.0078 7.89844C13.2118 7.89847 13.4031 7.92813 13.582 7.9873C13.7625 8.04658 13.9254 8.13345 14.0703 8.24805C14.2152 8.36133 14.3371 8.49975 14.4346 8.66309C14.5319 8.82496 14.5989 9.00991 14.6357 9.21777H14.1455C14.1165 9.07691 14.0656 8.95333 13.9932 8.84668C13.922 8.73999 13.8352 8.65057 13.7324 8.57812C13.631 8.50436 13.5184 8.44899 13.3945 8.41211C13.2708 8.37528 13.142 8.35647 13.0078 8.35645C12.7629 8.35645 12.5407 8.41825 12.3418 8.54199C12.1442 8.66581 11.9864 8.84879 11.8691 9.08984C11.7534 9.3308 11.6953 9.62641 11.6953 9.97656C11.6953 10.327 11.7532 10.6232 11.8691 10.8643C11.9864 11.1052 12.1443 11.2873 12.3418 11.4111C12.5407 11.5349 12.7628 11.5967 13.0078 11.5967C13.1419 11.5967 13.2709 11.5788 13.3945 11.542C13.5182 11.5051 13.6311 11.4503 13.7324 11.3779C13.8352 11.3042 13.922 11.2131 13.9932 11.1064C14.0656 10.9985 14.1165 10.8749 14.1455 10.7354H14.6357C14.5989 10.9422 14.532 11.1277 14.4346 11.291C14.3371 11.4543 14.2152 11.5934 14.0703 11.708C13.9255 11.8212 13.7623 11.9076 13.582 11.9668C13.4031 12.0259 13.2117 12.0556 13.0078 12.0557C12.6628 12.0557 12.3556 11.9712 12.0869 11.8027C11.8182 11.6341 11.6063 11.3939 11.4521 11.083C11.2981 10.7722 11.2217 10.4032 11.2217 9.97656C11.2217 9.54986 11.2981 9.18094 11.4521 8.87012C11.6063 8.55927 11.8182 8.31997 12.0869 8.15137C12.3556 7.98276 12.6627 7.89844 13.0078 7.89844ZM9.27637 12H8.7627L8.35547 10.8535H6.71973L6.3125 12H5.79883L7.28516 7.95312H7.79102L9.27637 12ZM10.3965 12H9.90723V7.95312H10.3965V12ZM16.7949 7.95312C17.1122 7.95314 17.3718 8.01048 17.5732 8.125C17.7761 8.23828 17.926 8.3923 18.0234 8.58594C18.1208 8.77946 18.1699 8.99514 18.1699 9.2334C18.1699 9.47182 18.1209 9.68884 18.0234 9.88379C17.9273 10.0787 17.7786 10.2347 17.5771 10.3506C17.3757 10.4651 17.1174 10.5225 16.8027 10.5225H15.918V12H15.4277V7.95312H16.7949ZM21.6758 12H21.1621L20.7549 10.8535H19.1191L18.7119 12H18.1982L19.6846 7.95312H20.1904L21.6758 12ZM19.2734 10.4189H20.6006L19.9531 8.59375H19.9219L19.2734 10.4189ZM6.87402 10.4189H8.20117L7.55371 8.59375H7.52148L6.87402 10.4189ZM15.918 10.0869H16.7871C17.0044 10.0869 17.1789 10.0497 17.3105 9.97461C17.4421 9.89963 17.5374 9.79841 17.5967 9.6709C17.6573 9.54181 17.6875 9.39542 17.6875 9.2334C17.6875 9.07152 17.6572 8.92651 17.5967 8.79883C17.5374 8.67126 17.4414 8.5714 17.3086 8.49902C17.1756 8.42529 16.9991 8.38773 16.7793 8.3877H15.918V10.0869Z" fill="#F5FAFF"/>
<path d="M5.3125 14.0078L22.6892 14.0078" stroke="white" stroke-width="0.434417"/>
</svg>
