<svg width="49" height="28" viewBox="0 0 49 28" fill="none" xmlns="http://www.w3.org/2000/svg">
<path d="M10.9212 25.776C13.6241 26.8464 14.7229 25.8326 14.7229 25.192C13.7655 25.1097 11.478 24.9752 10.9212 25.776ZM7.49077 24.9003C8.15689 25.4038 8.9836 25.6489 9.81726 25.5902C10.6523 25.5284 11.4369 25.1679 12.0267 24.5749C11.1046 24.3126 8.58663 24.0018 7.49003 24.9003H7.49077ZM12.0627 22.8197C11.9596 24.1517 13.2934 24.9003 14.7332 25.009C14.4703 23.669 13.1262 23.0703 12.0627 22.8197ZM9.4807 21.5914C9.32825 22.1607 9.53814 23.7072 11.6091 24.3199C11.5207 23.2767 10.9779 21.9176 9.4807 21.5914ZM5.37417 23.1415C5.8977 23.6822 6.59844 24.0174 7.34885 24.0862C8.09927 24.155 8.8495 23.9527 9.46302 23.5162C8.63303 23.0776 6.64015 22.4869 5.37417 23.1415ZM7.56221 20.0574C7.27867 20.6187 7.21828 22.2173 9.05208 23.179C9.15813 22.1504 8.75381 20.3902 7.56221 20.0574ZM3.02558 20.6789C3.19722 21.025 3.43721 21.3328 3.73111 21.584C4.02349 21.8338 4.363 22.0197 4.72755 22.1313C5.08912 22.2403 5.46987 22.271 5.8443 22.2214C6.21872 22.1717 6.5782 22.0428 6.89865 21.8434C5.7424 20.7311 3.89755 20.305 3.02558 20.6789ZM5.76744 17.6998C4.94481 19.167 5.81384 20.8435 6.71748 21.5319C7.12033 20.1676 6.75062 18.6814 5.76744 17.6998ZM1.50036 17.6359C1.40094 19.9156 3.72817 19.7914 4.82034 19.8069C4.47642 19.3279 2.56529 17.5911 1.50036 17.6359ZM4.36963 15.5061C3.93732 15.9932 3.2885 17.8644 4.72534 19.391C5.17532 18.2876 5.27401 16.592 4.36963 15.5061ZM0.281508 14.4967C0.207125 16.3378 1.7213 17.2701 3.18245 17.2554C2.74278 16.3679 1.56811 14.6583 0.280771 14.4967H0.281508ZM3.3452 13.2287C2.37749 13.8112 2.48722 15.6949 3.05872 16.6742C3.70018 15.7618 4.17888 14.6282 3.3452 13.2287ZM0.217435 11.5022C-0.261267 13.1794 1.14538 14.313 1.99084 14.41C1.77432 13.6092 1.49078 12.1913 0.217435 11.5022ZM3.16772 10.9446C2.09984 11.4919 1.59389 12.8003 1.99379 13.9795C2.73836 13.366 3.63611 12.0664 3.16772 10.9446ZM0.167356 8.91616C-0.492518 10.9556 1.02166 11.6219 1.58579 11.7858C1.51877 10.9189 0.978941 9.18945 0.167356 8.91616ZM3.125 8.38058C2.6927 8.50842 1.45838 9.54503 1.68153 11.4015C2.49385 10.9336 3.47998 10.0424 3.125 8.38058ZM0.613654 5.82541C-0.123548 8.3321 1.10709 9.36136 1.51214 9.56707C1.57548 8.77363 1.65354 6.92153 0.613654 5.82541ZM3.3452 5.88786C2.57192 6.10899 1.59684 7.5607 1.6425 8.9573C2.40842 8.59805 3.55436 7.1052 3.3452 5.88786ZM3.11469 2C1.31992 3.89765 1.06805 5.39416 1.59242 7.23965C2.40621 6.49102 3.0543 4.24514 3.11469 2Z" fill="white" fill-opacity="0.7"/>
<path d="M37.7455 25.776C35.0427 26.8464 33.9439 25.8326 33.9439 25.192C34.9013 25.1097 37.1888 24.9752 37.7455 25.776ZM41.176 24.9003C40.5099 25.4038 39.6832 25.6489 38.8495 25.5902C38.0144 25.5284 37.2298 25.1679 36.6401 24.5749C37.5622 24.3126 40.0794 24.0018 41.176 24.9003ZM36.604 22.8197C36.7071 24.1517 35.3734 24.9003 33.9336 25.009C34.1958 23.669 35.5406 23.0703 36.604 22.8197ZM39.1861 21.5914C39.3385 22.1607 39.1286 23.7072 37.0577 24.3199C37.1461 23.2767 37.6888 21.9176 39.1861 21.5914ZM43.2926 23.1415C42.7691 23.6822 42.0683 24.0174 41.3179 24.0862C40.5675 24.155 39.8173 23.9527 39.2037 23.5162C40.0337 23.0776 42.0266 22.4869 43.2926 23.1415ZM41.1046 20.0574C41.3881 20.6187 41.4485 22.2173 39.6147 23.179C39.5086 22.1504 39.913 20.3902 41.1046 20.0574ZM45.6412 20.6789C45.4695 21.025 45.2296 21.3328 44.9357 21.584C44.6433 21.8338 44.3045 22.0197 43.9392 22.1313C43.5776 22.2403 43.1969 22.271 42.8225 22.2214C42.448 22.1717 42.0886 22.0428 41.7681 21.8434C42.9244 20.7311 44.7692 20.305 45.6412 20.6789ZM42.8993 17.6998C43.722 19.167 42.8529 20.8435 41.9493 21.5319C41.5464 20.1676 41.9161 18.6814 42.8993 17.6998ZM47.1664 17.6359C47.2658 19.9156 44.9386 19.7914 43.8464 19.8069C44.1904 19.3279 46.1015 17.5911 47.1664 17.6359ZM44.2971 15.5061C44.7294 15.9932 45.3783 17.8644 43.9414 19.391C43.4914 18.2876 43.3928 16.592 44.2971 15.5061ZM48.386 14.496C48.4596 16.337 46.9455 17.2693 45.4843 17.2546C45.924 16.3671 47.0987 14.6576 48.386 14.496ZM45.3208 13.2279C46.2893 13.8105 46.1795 15.6942 45.608 16.6735C44.9666 15.761 44.4871 14.6275 45.3208 13.2279ZM48.4493 11.5022C48.928 13.1794 47.5214 14.313 46.6767 14.41C46.8924 13.6092 47.176 12.1913 48.4493 11.5022ZM45.499 10.9446C46.5669 11.4919 47.0729 12.8003 46.673 13.9795C45.9284 13.366 45.0307 12.0664 45.499 10.9446ZM48.4994 8.91616C49.1593 10.9556 47.6451 11.6219 47.081 11.7858C47.148 10.9189 47.6878 9.18945 48.4994 8.91616ZM45.541 8.38058C45.9741 8.50842 47.2084 9.54503 46.9845 11.4015C46.1729 10.9336 45.1868 10.0424 45.541 8.38058ZM48.0524 5.82541C48.7903 8.3321 47.5589 9.36136 47.1554 9.56707C47.0913 8.77363 47.0132 6.92153 48.0524 5.82541ZM45.3216 5.88786C46.0948 6.10899 47.0699 7.5607 47.0243 8.9573C46.2583 8.59805 45.1124 7.1052 45.3216 5.88786ZM45.5521 2C47.3468 3.89765 47.5987 5.39416 47.0743 7.23965C46.2613 6.49102 45.6132 4.24514 45.5521 2Z" fill="white" fill-opacity="0.7"/>
<path d="M11.4605 5.72972C11.4605 6.17182 11.3777 6.55047 11.2121 6.86568C11.0478 7.17955 10.8234 7.41996 10.5389 7.58692C10.2558 7.75387 9.93454 7.83735 9.57525 7.83735C9.21597 7.83735 8.89408 7.75387 8.60959 7.58692C8.32644 7.41863 8.10205 7.17755 7.93643 6.86367C7.77215 6.54846 7.69001 6.17048 7.69001 5.72972C7.69001 5.28763 7.77215 4.90965 7.93643 4.59577C8.10205 4.28057 8.32644 4.03948 8.60959 3.87253C8.89408 3.70558 9.21597 3.6221 9.57525 3.6221C9.93454 3.6221 10.2558 3.70558 10.5389 3.87253C10.8234 4.03948 11.0478 4.28057 11.2121 4.59577C11.3777 4.90965 11.4605 5.28763 11.4605 5.72972ZM10.7132 5.72972C10.7132 5.41852 10.6645 5.15607 10.567 4.94237C10.4708 4.72733 10.3372 4.56506 10.1663 4.45553C9.99531 4.34468 9.7983 4.28925 9.57525 4.28925C9.3522 4.28925 9.1552 4.34468 8.98424 4.45553C8.81327 4.56506 8.67904 4.72733 8.58154 4.94237C8.48538 5.15607 8.4373 5.41852 8.4373 5.72972C8.4373 6.04093 8.48538 6.30404 8.58154 6.51908C8.67904 6.73278 8.81327 6.89506 8.98424 7.00592C9.1552 7.11544 9.3522 7.1702 9.57525 7.1702C9.7983 7.1702 9.99531 7.11544 10.1663 7.00592C10.3372 6.89506 10.4708 6.73278 10.567 6.51908C10.6645 6.30404 10.7132 6.04093 10.7132 5.72972ZM14.2802 4.80614C14.2615 4.63117 14.1827 4.49493 14.0438 4.39743C13.9062 4.29993 13.7272 4.25118 13.5069 4.25118C13.3519 4.25118 13.219 4.27456 13.1082 4.3213C12.9973 4.36805 12.9125 4.43149 12.8537 4.51163C12.795 4.59177 12.7649 4.68326 12.7636 4.7861C12.7636 4.87158 12.783 4.94571 12.8217 5.00848C12.8618 5.07126 12.9159 5.12468 12.984 5.16876C13.0521 5.2115 13.1276 5.24756 13.2104 5.27695C13.2932 5.30633 13.3766 5.33104 13.4608 5.35107L13.8455 5.44724C14.0004 5.4833 14.1493 5.53205 14.2922 5.59349C14.4365 5.65493 14.5654 5.73239 14.6789 5.82589C14.7937 5.91938 14.8846 6.03224 14.9514 6.16447C15.0181 6.2967 15.0515 6.45163 15.0515 6.62927C15.0515 6.86968 14.9901 7.08138 14.8672 7.26436C14.7443 7.44601 14.5667 7.58825 14.3343 7.6911C14.1032 7.7926 13.8234 7.84336 13.4948 7.84336C13.1756 7.84336 12.8985 7.79394 12.6634 7.6951C12.4297 7.59627 12.2467 7.45202 12.1145 7.26236C11.9836 7.0727 11.9128 6.84163 11.9021 6.56917H12.6334C12.6441 6.71208 12.6881 6.83095 12.7656 6.92578C12.8431 7.02061 12.9439 7.0914 13.0681 7.13814C13.1937 7.18489 13.3339 7.20827 13.4888 7.20827C13.6504 7.20827 13.792 7.18422 13.9136 7.13614C14.0364 7.08672 14.1326 7.01861 14.2021 6.93179C14.2715 6.84364 14.3069 6.74079 14.3082 6.62326C14.3069 6.51641 14.2755 6.42826 14.2141 6.3588C14.1526 6.28802 14.0665 6.22925 13.9556 6.1825C13.8461 6.13442 13.7179 6.09168 13.571 6.05428L13.1042 5.93407C12.7663 5.84726 12.4991 5.7157 12.3028 5.5394C12.1078 5.36176 12.0103 5.12602 12.0103 4.83218C12.0103 4.59043 12.0757 4.37873 12.2066 4.19709C12.3389 4.01544 12.5185 3.87453 12.7456 3.77436C12.9726 3.67285 13.2297 3.6221 13.5169 3.6221C13.8081 3.6221 14.0632 3.67285 14.2822 3.77436C14.5026 3.87453 14.6755 4.01411 14.8011 4.19308C14.9266 4.37072 14.9914 4.57507 14.9954 4.80614H14.2802ZM17.8312 4.80614C17.8125 4.63117 17.7337 4.49493 17.5948 4.39743C17.4572 4.29993 17.2782 4.25118 17.0578 4.25118C16.9029 4.25118 16.77 4.27456 16.6591 4.3213C16.5483 4.36805 16.4635 4.43149 16.4047 4.51163C16.3459 4.59177 16.3159 4.68326 16.3146 4.7861C16.3146 4.87158 16.3339 4.94571 16.3727 5.00848C16.4127 5.07126 16.4668 5.12468 16.5349 5.16876C16.6031 5.2115 16.6785 5.24756 16.7613 5.27695C16.8441 5.30633 16.9276 5.33104 17.0118 5.35107L17.3964 5.44724C17.5513 5.4833 17.7003 5.53205 17.8432 5.59349C17.9874 5.65493 18.1163 5.73239 18.2298 5.82589C18.3447 5.91938 18.4355 6.03224 18.5023 6.16447C18.5691 6.2967 18.6025 6.45163 18.6025 6.62927C18.6025 6.86968 18.541 7.08138 18.4182 7.26436C18.2953 7.44601 18.1177 7.58825 17.8853 7.6911C17.6542 7.7926 17.3744 7.84336 17.0458 7.84336C16.7266 7.84336 16.4495 7.79394 16.2144 7.6951C15.9806 7.59627 15.7977 7.45202 15.6654 7.26236C15.5345 7.0727 15.4638 6.84163 15.4531 6.56917H16.1843C16.195 6.71208 16.2391 6.83095 16.3166 6.92578C16.394 7.02061 16.4949 7.0914 16.6191 7.13814C16.7446 7.18489 16.8849 7.20827 17.0398 7.20827C17.2014 7.20827 17.343 7.18422 17.4645 7.13614C17.5874 7.08672 17.6836 7.01861 17.753 6.93179C17.8225 6.84364 17.8579 6.74079 17.8592 6.62326C17.8579 6.51641 17.8265 6.42826 17.765 6.3588C17.7036 6.28802 17.6175 6.22925 17.5066 6.1825C17.3971 6.13442 17.2689 6.09168 17.1219 6.05428L16.6551 5.93407C16.3172 5.84726 16.0501 5.7157 15.8538 5.5394C15.6588 5.36176 15.5613 5.12602 15.5613 4.83218C15.5613 4.59043 15.6267 4.37873 15.7576 4.19709C15.8898 4.01544 16.0695 3.87453 16.2965 3.77436C16.5236 3.67285 16.7807 3.6221 17.0679 3.6221C17.359 3.6221 17.6141 3.67285 17.8332 3.77436C18.0535 3.87453 18.2265 4.01411 18.3521 4.19308C18.4776 4.37072 18.5424 4.57507 18.5464 4.80614H17.8312ZM20.4389 7.78125V3.6782H21.9775C22.2927 3.6782 22.5572 3.73696 22.7709 3.8545C22.9859 3.97204 23.1482 4.13365 23.2577 4.33933C23.3686 4.54368 23.424 4.77608 23.424 5.03653C23.424 5.29965 23.3686 5.53339 23.2577 5.73774C23.1469 5.94209 22.9832 6.10303 22.7669 6.22057C22.5505 6.33677 22.284 6.39487 21.9675 6.39487H20.9477V5.78382H21.8673C22.0516 5.78382 22.2026 5.75176 22.3201 5.68765C22.4376 5.62354 22.5244 5.53539 22.5805 5.4232C22.638 5.311 22.6667 5.18212 22.6667 5.03653C22.6667 4.89095 22.638 4.76273 22.5805 4.65187C22.5244 4.54101 22.437 4.45487 22.3181 4.39343C22.2006 4.33065 22.049 4.29926 21.8633 4.29926H21.1821V7.78125H20.4389ZM23.9247 7.78125V4.70396H24.6279V5.21684H24.66C24.7161 5.0392 24.8122 4.9023 24.9485 4.80614C25.086 4.70864 25.243 4.65988 25.4193 4.65988C25.4594 4.65988 25.5041 4.66189 25.5535 4.66589C25.6043 4.66857 25.6463 4.67324 25.6797 4.67992V5.34707C25.649 5.33638 25.6003 5.32703 25.5335 5.31902C25.468 5.30967 25.4046 5.30499 25.3432 5.30499C25.2109 5.30499 25.0921 5.33371 24.9865 5.39114C24.8824 5.44724 24.8002 5.52537 24.7401 5.62554C24.68 5.72572 24.65 5.84125 24.65 5.97214V7.78125H23.9247ZM27.2643 7.84135C26.9638 7.84135 26.7034 7.77524 26.483 7.64301C26.2626 7.51079 26.0916 7.3258 25.9701 7.08806C25.8499 6.85032 25.7898 6.57251 25.7898 6.25463C25.7898 5.93675 25.8499 5.65827 25.9701 5.41919C26.0916 5.18011 26.2626 4.99446 26.483 4.86223C26.7034 4.73001 26.9638 4.66389 27.2643 4.66389C27.5648 4.66389 27.8253 4.73001 28.0457 4.86223C28.266 4.99446 28.4363 5.18011 28.5565 5.41919C28.6781 5.65827 28.7389 5.93675 28.7389 6.25463C28.7389 6.57251 28.6781 6.85032 28.5565 7.08806C28.4363 7.3258 28.266 7.51079 28.0457 7.64301C27.8253 7.77524 27.5648 7.84135 27.2643 7.84135ZM27.2683 7.26035C27.4313 7.26035 27.5675 7.21561 27.677 7.12612C27.7865 7.0353 27.868 6.91376 27.9214 6.7615C27.9762 6.60924 28.0036 6.43961 28.0036 6.25262C28.0036 6.0643 27.9762 5.89401 27.9214 5.74174C27.868 5.58815 27.7865 5.46594 27.677 5.37511C27.5675 5.28429 27.4313 5.23888 27.2683 5.23888C27.1014 5.23888 26.9625 5.28429 26.8516 5.37511C26.7421 5.46594 26.6599 5.58815 26.6052 5.74174C26.5518 5.89401 26.525 6.0643 26.525 6.25262C26.525 6.43961 26.5518 6.60924 26.6052 6.7615C26.6599 6.91376 26.7421 7.0353 26.8516 7.12612C26.9625 7.21561 27.1014 7.26035 27.2683 7.26035ZM30.3835 7.83534C30.1418 7.83534 29.9254 7.77324 29.7344 7.64902C29.5434 7.52481 29.3925 7.3445 29.2816 7.10809C29.1708 6.87169 29.1154 6.58453 29.1154 6.24661C29.1154 5.90469 29.1715 5.6162 29.2836 5.38112C29.3972 5.14472 29.5501 4.96641 29.7424 4.8462C29.9348 4.72466 30.1491 4.66389 30.3855 4.66389C30.5659 4.66389 30.7141 4.69461 30.8303 4.75605C30.9465 4.81615 31.0387 4.88895 31.1068 4.97443C31.1749 5.05857 31.2277 5.13804 31.2651 5.21284H31.2951V3.6782H32.0224V7.78125H31.3091V7.29642H31.2651C31.2277 7.37121 31.1736 7.45068 31.1028 7.53483C31.032 7.61764 30.9385 7.68842 30.8223 7.74719C30.7061 7.80596 30.5598 7.83534 30.3835 7.83534ZM30.5859 7.24032C30.7395 7.24032 30.8704 7.19892 30.9786 7.11611C31.0867 7.03196 31.1689 6.91509 31.225 6.7655C31.2811 6.61591 31.3091 6.44161 31.3091 6.24261C31.3091 6.0436 31.2811 5.87063 31.225 5.72371C31.1702 5.57679 31.0888 5.4626 30.9806 5.38112C30.8737 5.29965 30.7422 5.25891 30.5859 5.25891C30.4243 5.25891 30.2894 5.30099 30.1812 5.38513C30.073 5.46928 29.9915 5.58548 29.9368 5.73373C29.882 5.88199 29.8546 6.05161 29.8546 6.24261C29.8546 6.43494 29.882 6.60656 29.9368 6.75749C29.9929 6.90708 30.075 7.02528 30.1832 7.1121C30.2927 7.19758 30.4269 7.24032 30.5859 7.24032ZM34.6437 6.48703V4.70396H35.369V7.78125H34.6658V7.23431H34.6337C34.5643 7.40661 34.4501 7.54751 34.2911 7.65704C34.1335 7.76656 33.9392 7.82132 33.7081 7.82132C33.5064 7.82132 33.3281 7.77658 33.1732 7.68709C33.0196 7.59627 32.8994 7.46471 32.8126 7.29241C32.7258 7.11878 32.6824 6.90908 32.6824 6.66333V4.70396H33.4076V6.55114C33.4076 6.74614 33.461 6.90107 33.5679 7.01593C33.6747 7.1308 33.815 7.18823 33.9886 7.18823C34.0954 7.18823 34.199 7.16219 34.2991 7.1101C34.3993 7.05801 34.4814 6.98054 34.5456 6.8777C34.611 6.77352 34.6437 6.64329 34.6437 6.48703ZM37.3442 7.84135C37.037 7.84135 36.7732 7.7739 36.5529 7.63901C36.3338 7.50411 36.1649 7.31779 36.046 7.08004C35.9285 6.84097 35.8697 6.56583 35.8697 6.25463C35.8697 5.94209 35.9298 5.66628 36.05 5.4272C36.1702 5.18679 36.3398 4.9998 36.5589 4.86624C36.7793 4.73134 37.0397 4.66389 37.3402 4.66389C37.59 4.66389 37.811 4.70997 38.0034 4.80213C38.197 4.89295 38.3513 5.02184 38.4662 5.18879C38.581 5.35441 38.6465 5.54808 38.6625 5.76979H37.9693C37.9412 5.62154 37.8745 5.49799 37.769 5.39916C37.6648 5.29898 37.5252 5.2489 37.3502 5.2489C37.202 5.2489 37.0718 5.28897 36.9596 5.3691C36.8474 5.44791 36.7599 5.56143 36.6971 5.70969C36.6357 5.85794 36.605 6.03558 36.605 6.24261C36.605 6.4523 36.6357 6.63261 36.6971 6.78354C36.7585 6.93313 36.8447 7.04866 36.9556 7.13013C37.0677 7.21027 37.1993 7.25034 37.3502 7.25034C37.4571 7.25034 37.5526 7.2303 37.6367 7.19023C37.7222 7.14883 37.7937 7.08939 37.8511 7.01193C37.9085 6.93446 37.9479 6.8403 37.9693 6.72944H38.6625C38.6451 6.94715 38.581 7.14015 38.4702 7.30844C38.3593 7.47539 38.2084 7.60628 38.0174 7.70111C37.8264 7.79461 37.602 7.84135 37.3442 7.84135ZM40.6818 4.70396V5.26492H38.9128V4.70396H40.6818ZM39.3495 3.96669H40.0748V6.85566C40.0748 6.95316 40.0895 7.02796 40.1189 7.08004C40.1496 7.1308 40.1896 7.16552 40.2391 7.18422C40.2885 7.20292 40.3432 7.21227 40.4033 7.21227C40.4488 7.21227 40.4902 7.20893 40.5276 7.20225C40.5663 7.19558 40.5957 7.18957 40.6157 7.18422L40.7379 7.7512C40.6992 7.76455 40.6438 7.77925 40.5716 7.79527C40.5008 7.8113 40.414 7.82065 40.3112 7.82332C40.1295 7.82866 39.9659 7.80128 39.8203 7.74118C39.6748 7.67974 39.5592 7.58491 39.4737 7.45669C39.3896 7.32847 39.3482 7.1682 39.3495 6.97587V3.96669ZM11.7063 13.8414C11.4058 13.8414 11.1454 13.7752 10.925 13.643C10.7046 13.5108 10.5337 13.3258 10.4121 13.0881C10.2919 12.8503 10.2318 12.5725 10.2318 12.2546C10.2318 11.9367 10.2919 11.6583 10.4121 11.4192C10.5337 11.1801 10.7046 10.9945 10.925 10.8622C11.1454 10.73 11.4058 10.6639 11.7063 10.6639C12.0069 10.6639 12.2673 10.73 12.4877 10.8622C12.7081 10.9945 12.8784 11.1801 12.9986 11.4192C13.1201 11.6583 13.1809 11.9367 13.1809 12.2546C13.1809 12.5725 13.1201 12.8503 12.9986 13.0881C12.8784 13.3258 12.7081 13.5108 12.4877 13.643C12.2673 13.7752 12.0069 13.8414 11.7063 13.8414ZM11.7104 13.2604C11.8733 13.2604 12.0095 13.2156 12.1191 13.1261C12.2286 13.0353 12.31 12.9138 12.3635 12.7615C12.4182 12.6092 12.4456 12.4396 12.4456 12.2526C12.4456 12.0643 12.4182 11.894 12.3635 11.7417C12.31 11.5881 12.2286 11.4659 12.1191 11.3751C12.0095 11.2843 11.8733 11.2389 11.7104 11.2389C11.5434 11.2389 11.4045 11.2843 11.2936 11.3751C11.1841 11.4659 11.102 11.5881 11.0472 11.7417C10.9938 11.894 10.9671 12.0643 10.9671 12.2526C10.9671 12.4396 10.9938 12.6092 11.0472 12.7615C11.102 12.9138 11.1841 13.0353 11.2936 13.1261C11.4045 13.2156 11.5434 13.2604 11.7104 13.2604ZM15.2423 10.704V11.2649H13.4232V10.704H15.2423ZM13.8779 13.7812V10.4135C13.8779 10.2064 13.9207 10.0341 14.0062 9.89657C14.093 9.759 14.2092 9.65616 14.3548 9.58804C14.5003 9.51993 14.662 9.48587 14.8396 9.48587C14.9651 9.48587 15.0767 9.49588 15.1742 9.51592C15.2717 9.53595 15.3438 9.55398 15.3905 9.57001L15.2463 10.131C15.2156 10.1216 15.1768 10.1123 15.1301 10.1029C15.0833 10.0922 15.0313 10.0869 14.9738 10.0869C14.8389 10.0869 14.7434 10.1196 14.6873 10.1851C14.6326 10.2492 14.6052 10.3413 14.6052 10.4615V13.7812H13.8779ZM18.5206 10.704V11.2649H16.7516V10.704H18.5206ZM17.1883 9.96669H17.9136V12.8557C17.9136 12.9532 17.9283 13.028 17.9577 13.08C17.9884 13.1308 18.0285 13.1655 18.0779 13.1842C18.1273 13.2029 18.1821 13.2123 18.2422 13.2123C18.2876 13.2123 18.329 13.2089 18.3664 13.2023C18.4051 13.1956 18.4345 13.1896 18.4545 13.1842L18.5767 13.7512C18.538 13.7646 18.4826 13.7792 18.4104 13.7953C18.3397 13.8113 18.2528 13.8207 18.15 13.8233C17.9684 13.8287 17.8047 13.8013 17.6592 13.7412C17.5136 13.6797 17.398 13.5849 17.3126 13.4567C17.2284 13.3285 17.187 13.1682 17.1883 12.9759V9.96669ZM19.8057 11.9782V13.7812H19.0805V9.6782H19.7897V11.2269H19.8257C19.8979 11.0532 20.0094 10.9163 20.1603 10.8162C20.3126 10.7146 20.5062 10.6639 20.7413 10.6639C20.955 10.6639 21.1413 10.7086 21.3003 10.7981C21.4592 10.8876 21.5821 11.0185 21.6689 11.1908C21.7571 11.3631 21.8011 11.5735 21.8011 11.8219V13.7812H21.0759V11.9341C21.0759 11.7271 21.0225 11.5661 20.9156 11.4512C20.8101 11.335 20.6618 11.2769 20.4709 11.2769C20.3426 11.2769 20.2278 11.305 20.1263 11.3611C20.0261 11.4159 19.9473 11.4953 19.8899 11.5995C19.8338 11.7037 19.8057 11.8299 19.8057 11.9782ZM23.7899 13.8414C23.4814 13.8414 23.2149 13.7772 22.9905 13.649C22.7675 13.5195 22.5959 13.3365 22.4757 13.1001C22.3554 12.8623 22.2953 12.5825 22.2953 12.2606C22.2953 11.9441 22.3554 11.6663 22.4757 11.4272C22.5972 11.1868 22.7668 10.9998 22.9845 10.8662C23.2022 10.7313 23.458 10.6639 23.7518 10.6639C23.9415 10.6639 24.1205 10.6946 24.2888 10.756C24.4584 10.8162 24.608 10.9096 24.7375 11.0365C24.8684 11.1634 24.9713 11.325 25.0461 11.5214C25.1209 11.7164 25.1583 11.9488 25.1583 12.2186V12.4409H22.6359V11.9521H24.4631C24.4617 11.8132 24.4317 11.6897 24.3729 11.5815C24.3141 11.4719 24.232 11.3858 24.1265 11.323C24.0223 11.2602 23.9008 11.2289 23.7619 11.2289C23.6136 11.2289 23.4834 11.2649 23.3712 11.337C23.259 11.4078 23.1715 11.5013 23.1087 11.6175C23.0473 11.7324 23.0159 11.8586 23.0146 11.9962V12.4229C23.0146 12.6019 23.0473 12.7555 23.1128 12.8837C23.1782 13.0106 23.2697 13.1081 23.3872 13.1762C23.5048 13.243 23.6423 13.2764 23.7999 13.2764C23.9054 13.2764 24.0009 13.2617 24.0864 13.2323C24.1719 13.2016 24.246 13.1568 24.3088 13.0981C24.3716 13.0393 24.419 12.9665 24.4511 12.8797L25.1282 12.9558C25.0855 13.1348 25.004 13.2911 24.8838 13.4246C24.7649 13.5569 24.6127 13.6597 24.427 13.7332C24.2414 13.8053 24.029 13.8414 23.7899 13.8414ZM27.3963 14.9352C27.2975 14.9352 27.206 14.9272 27.1219 14.9112C27.0391 14.8965 26.9729 14.8791 26.9235 14.8591L27.0918 14.2941C27.1973 14.3249 27.2915 14.3395 27.3743 14.3382C27.4571 14.3369 27.5299 14.3108 27.5927 14.2601C27.6568 14.2107 27.7109 14.1278 27.7549 14.0116L27.8171 13.8454L26.7011 10.704H27.4705L28.1797 13.028H28.2117L28.923 10.704H29.6943L28.4622 14.1539C28.4047 14.3168 28.3286 14.4564 28.2338 14.5726C28.1389 14.6901 28.0227 14.7796 27.8852 14.8411C27.7489 14.9038 27.586 14.9352 27.3963 14.9352ZM31.341 13.8414C31.0324 13.8414 30.766 13.7772 30.5416 13.649C30.3185 13.5195 30.1469 13.3365 30.0267 13.1001C29.9065 12.8623 29.8464 12.5825 29.8464 12.2606C29.8464 11.9441 29.9065 11.6663 30.0267 11.4272C30.1483 11.1868 30.3179 10.9998 30.5356 10.8662C30.7533 10.7313 31.0091 10.6639 31.3029 10.6639C31.4926 10.6639 31.6715 10.6946 31.8398 10.756C32.0095 10.8162 32.159 10.9096 32.2886 11.0365C32.4195 11.1634 32.5223 11.325 32.5971 11.5214C32.6719 11.7164 32.7093 11.9488 32.7093 12.2186V12.4409H30.187V11.9521H32.0141C32.0128 11.8132 31.9827 11.6897 31.924 11.5815C31.8652 11.4719 31.7831 11.3858 31.6776 11.323C31.5734 11.2602 31.4518 11.2289 31.3129 11.2289C31.1647 11.2289 31.0344 11.2649 30.9223 11.337C30.8101 11.4078 30.7226 11.5013 30.6598 11.6175C30.5984 11.7324 30.567 11.8586 30.5656 11.9962V12.4229C30.5656 12.6019 30.5984 12.7555 30.6638 12.8837C30.7293 13.0106 30.8207 13.1081 30.9383 13.1762C31.0558 13.243 31.1934 13.2764 31.351 13.2764C31.4565 13.2764 31.552 13.2617 31.6375 13.2323C31.723 13.2016 31.7971 13.1568 31.8599 13.0981C31.9226 13.0393 31.9701 12.9665 32.0021 12.8797L32.6793 12.9558C32.6365 13.1348 32.5551 13.2911 32.4349 13.4246C32.316 13.5569 32.1637 13.6597 31.9781 13.7332C31.7924 13.8053 31.5801 13.8414 31.341 13.8414ZM34.0956 13.8434C33.9006 13.8434 33.7249 13.8086 33.5687 13.7392C33.4137 13.6684 33.2909 13.5642 33.2 13.4266C33.1105 13.2891 33.0658 13.1194 33.0658 12.9178C33.0658 12.7441 33.0979 12.6006 33.162 12.487C33.2261 12.3735 33.3136 12.2827 33.4244 12.2146C33.5353 12.1464 33.6602 12.095 33.7991 12.0603C33.9393 12.0242 34.0842 11.9982 34.2338 11.9822C34.4141 11.9635 34.5604 11.9468 34.6726 11.9321C34.7848 11.916 34.8662 11.892 34.917 11.8599C34.9691 11.8266 34.9951 11.7751 34.9951 11.7057V11.6937C34.9951 11.5427 34.9504 11.4259 34.8609 11.3431C34.7714 11.2602 34.6425 11.2188 34.4742 11.2188C34.2966 11.2188 34.1557 11.2576 34.0515 11.335C33.9486 11.4125 33.8792 11.504 33.8431 11.6095L33.166 11.5134C33.2194 11.3264 33.3075 11.1701 33.4304 11.0445C33.5533 10.9177 33.7036 10.8228 33.8812 10.7601C34.0588 10.6959 34.2552 10.6639 34.4702 10.6639C34.6185 10.6639 34.7661 10.6813 34.913 10.716C35.0599 10.7507 35.1941 10.8081 35.3157 10.8883C35.4372 10.9671 35.5347 11.0746 35.6082 11.2108C35.683 11.3471 35.7204 11.5174 35.7204 11.7217V13.7812H35.0232V13.3585H34.9991C34.955 13.444 34.8929 13.5241 34.8128 13.5989C34.734 13.6724 34.6345 13.7318 34.5143 13.7772C34.3954 13.8213 34.2558 13.8434 34.0956 13.8434ZM34.2839 13.3104C34.4295 13.3104 34.5557 13.2817 34.6625 13.2243C34.7694 13.1655 34.8515 13.0881 34.909 12.9919C34.9677 12.8957 34.9971 12.7909 34.9971 12.6774V12.3147C34.9744 12.3334 34.9357 12.3508 34.8809 12.3668C34.8275 12.3828 34.7674 12.3969 34.7006 12.4089C34.6338 12.4209 34.5677 12.4316 34.5023 12.4409C34.4368 12.4503 34.3801 12.4583 34.332 12.465C34.2238 12.4797 34.127 12.5037 34.0415 12.5371C33.956 12.5705 33.8885 12.6172 33.8391 12.6774C33.7897 12.7361 33.765 12.8123 33.765 12.9057C33.765 13.0393 33.8138 13.1401 33.9113 13.2083C34.0088 13.2764 34.133 13.3104 34.2839 13.3104ZM36.3368 13.7812V10.704H37.04V11.2168H37.072C37.1281 11.0392 37.2243 10.9023 37.3605 10.8061C37.4981 10.7086 37.655 10.6599 37.8314 10.6599C37.8714 10.6599 37.9162 10.6619 37.9656 10.6659C38.0163 10.6686 38.0584 10.6732 38.0918 10.6799V11.3471C38.0611 11.3364 38.0123 11.327 37.9455 11.319C37.8801 11.3097 37.8167 11.305 37.7552 11.305C37.623 11.305 37.5041 11.3337 37.3986 11.3911C37.2944 11.4472 37.2123 11.5254 37.1522 11.6255C37.0921 11.7257 37.062 11.8412 37.062 11.9721V13.7812H36.3368Z" fill="white"/>
<path d="M16.366 22.5703V21.8185L18.1227 20.1918C18.2721 20.0472 18.3975 19.9171 18.4987 19.8014C18.6015 19.6858 18.6794 19.5725 18.7324 19.4617C18.7854 19.3492 18.8119 19.2279 18.8119 19.0978C18.8119 18.9532 18.779 18.8287 18.7131 18.7243C18.6473 18.6182 18.5573 18.5371 18.4432 18.4809C18.3292 18.423 18.1999 18.3941 18.0553 18.3941C17.9043 18.3941 17.7725 18.4246 17.6601 18.4857C17.5476 18.5467 17.4608 18.6343 17.3998 18.7484C17.3388 18.8624 17.3082 18.9982 17.3082 19.1556H16.3178C16.3178 18.8327 16.3909 18.5524 16.5371 18.3146C16.6833 18.0768 16.8881 17.8929 17.1516 17.7628C17.4151 17.6326 17.7187 17.5676 18.0625 17.5676C18.4159 17.5676 18.7236 17.6302 18.9854 17.7555C19.2489 17.8792 19.4538 18.0511 19.5999 18.2712C19.7461 18.4913 19.8192 18.7435 19.8192 19.0279C19.8192 19.2143 19.7823 19.3982 19.7084 19.5797C19.6361 19.7613 19.5068 19.9629 19.3204 20.1846C19.1341 20.4047 18.8714 20.669 18.5324 20.9774L17.8119 21.6835V21.7172H19.8843V22.5703H16.366ZM22.4397 22.6788C22.0252 22.6771 21.6686 22.5751 21.3698 22.3727C21.0726 22.1703 20.8436 21.8771 20.683 21.4931C20.5239 21.1092 20.4452 20.6473 20.4468 20.1075C20.4468 19.5693 20.5263 19.1106 20.6854 18.7315C20.8461 18.3524 21.075 18.064 21.3722 17.8664C21.671 17.6672 22.0269 17.5676 22.4397 17.5676C22.8526 17.5676 23.2077 17.6672 23.5049 17.8664C23.8037 18.0656 24.0334 18.3548 24.1941 18.7339C24.3547 19.1114 24.4342 19.5693 24.4326 20.1075C24.4326 20.6489 24.3523 21.1116 24.1917 21.4955C24.0326 21.8795 23.8045 22.1727 23.5073 22.3751C23.2101 22.5775 22.8542 22.6788 22.4397 22.6788ZM22.4397 21.8136C22.7225 21.8136 22.9482 21.6715 23.1169 21.3871C23.2856 21.1027 23.3691 20.6762 23.3675 20.1075C23.3675 19.7332 23.329 19.4215 23.2518 19.1725C23.1763 18.9235 23.0687 18.7363 22.9289 18.611C22.7908 18.4857 22.6277 18.423 22.4397 18.423C22.1586 18.423 21.9337 18.5636 21.765 18.8448C21.5963 19.1259 21.5112 19.5468 21.5095 20.1075C21.5095 20.4866 21.5473 20.8031 21.6228 21.057C21.6999 21.3092 21.8084 21.4988 21.9481 21.6257C22.0879 21.751 22.2518 21.8136 22.4397 21.8136ZM25.0409 22.5703V21.8185L26.7977 20.1918C26.9471 20.0472 27.0724 19.9171 27.1736 19.8014C27.2764 19.6858 27.3544 19.5725 27.4074 19.4617C27.4604 19.3492 27.4869 19.2279 27.4869 19.0978C27.4869 18.9532 27.454 18.8287 27.3881 18.7243C27.3222 18.6182 27.2323 18.5371 27.1182 18.4809C27.0041 18.423 26.8748 18.3941 26.7302 18.3941C26.5792 18.3941 26.4475 18.4246 26.335 18.4857C26.2226 18.5467 26.1358 18.6343 26.0748 18.7484C26.0137 18.8624 25.9832 18.9982 25.9832 19.1556H24.9927C24.9927 18.8327 25.0658 18.5524 25.212 18.3146C25.3582 18.0768 25.5631 17.8929 25.8265 17.7628C26.09 17.6326 26.3936 17.5676 26.7374 17.5676C27.0909 17.5676 27.3985 17.6302 27.6604 17.7555C27.9239 17.8792 28.1287 18.0511 28.2749 18.2712C28.4211 18.4913 28.4942 18.7435 28.4942 19.0279C28.4942 19.2143 28.4572 19.3982 28.3833 19.5797C28.311 19.7613 28.1817 19.9629 27.9954 20.1846C27.809 20.4047 27.5463 20.669 27.2074 20.9774L26.4868 21.6835V21.7172H28.5593V22.5703H25.0409ZM31.0038 22.6378C30.644 22.6378 30.3235 22.5759 30.0423 22.4522C29.7628 22.3269 29.5419 22.155 29.3796 21.9365C29.219 21.7164 29.1362 21.4626 29.1314 21.175H30.1821C30.1885 21.2955 30.2279 21.4016 30.3002 21.4931C30.3741 21.5831 30.4721 21.653 30.5942 21.7028C30.7163 21.7526 30.8536 21.7775 31.0062 21.7775C31.1653 21.7775 31.3059 21.7494 31.428 21.6931C31.5501 21.6369 31.6456 21.559 31.7147 21.4594C31.7838 21.3598 31.8183 21.2449 31.8183 21.1148C31.8183 20.9831 31.7814 20.8666 31.7075 20.7654C31.6352 20.6626 31.5308 20.5822 31.3942 20.5244C31.2593 20.4666 31.0986 20.4376 30.9123 20.4376H30.452V19.6713H30.9123C31.0697 19.6713 31.2087 19.644 31.3292 19.5894C31.4513 19.5348 31.546 19.4593 31.6135 19.3629C31.681 19.2649 31.7147 19.1508 31.7147 19.0207C31.7147 18.897 31.685 18.7885 31.6256 18.6953C31.5677 18.6006 31.4858 18.5267 31.3798 18.4736C31.2753 18.4206 31.1532 18.3941 31.0135 18.3941C30.8721 18.3941 30.7428 18.4198 30.6255 18.4712C30.5082 18.521 30.4142 18.5925 30.3435 18.6857C30.2729 18.7789 30.2351 18.8881 30.2303 19.0134H29.2302C29.235 18.7291 29.3162 18.4785 29.4736 18.2616C29.6311 18.0447 29.8431 17.8752 30.1098 17.7531C30.3781 17.6294 30.6809 17.5676 31.0183 17.5676C31.3589 17.5676 31.6569 17.6294 31.9123 17.7531C32.1678 17.8768 32.3662 18.0439 32.5076 18.2544C32.6505 18.4632 32.7212 18.6978 32.7196 18.958C32.7212 19.2343 32.6353 19.4649 32.4618 19.6496C32.2899 19.8344 32.0658 19.9517 31.7894 20.0015V20.04C32.1525 20.0866 32.4288 20.2127 32.6184 20.4184C32.8096 20.6224 32.9044 20.8778 32.9028 21.1847C32.9044 21.4658 32.8232 21.7156 32.6594 21.9341C32.4971 22.1526 32.273 22.3245 31.987 22.4498C31.7011 22.5751 31.3733 22.6378 31.0038 22.6378Z" fill="white"/>
</svg>
