<svg width="28" height="28" viewBox="0 0 28 28" fill="none" xmlns="http://www.w3.org/2000/svg">
<path d="M13.9961 0C21.7281 0 27.9961 6.26801 27.9961 14C27.9961 21.732 21.7281 28 13.9961 28C6.26411 28 -0.00390625 21.732 -0.00390625 14C-0.00390625 6.26801 6.26411 0 13.9961 0ZM13.9971 1.79688C7.25478 1.79688 1.78906 7.26259 1.78906 14.0049C1.78907 20.7472 7.25478 26.2129 13.9971 26.2129C20.7394 26.2129 26.2051 20.7472 26.2051 14.0049C26.2051 7.26259 20.7394 1.79688 13.9971 1.79688Z" fill="black" fill-opacity="0.6"/>
<path d="M7.59082 16.2422C7.89097 16.2422 8.15312 16.2928 8.37695 16.3955C8.60203 16.4982 8.77722 16.6413 8.90234 16.8242C9.02748 17.0073 9.09273 17.2199 9.09668 17.4609H8.27637C8.26056 17.3015 8.19214 17.1781 8.07227 17.0898C7.95247 17.0017 7.79025 16.9571 7.58496 16.957C7.44549 16.957 7.32754 16.9772 7.23145 17.0166C7.13529 17.0548 7.06114 17.1083 7.00977 17.1768C6.95987 17.2451 6.93464 17.3225 6.93457 17.4092C6.93194 17.4816 6.94754 17.5456 6.98047 17.5996C7.01464 17.6533 7.06113 17.6999 7.12012 17.7393C7.17939 17.7775 7.24845 17.8109 7.32617 17.8398C7.40384 17.8675 7.48701 17.8914 7.5752 17.9111L7.93848 17.998C8.11496 18.0376 8.27729 18.0904 8.4248 18.1562C8.57218 18.2221 8.69969 18.3033 8.80762 18.3994C8.91561 18.4956 8.99932 18.6089 9.05859 18.7393C9.11914 18.8696 9.15001 19.019 9.15137 19.1875C9.15005 19.4351 9.08705 19.6503 8.96191 19.832C8.83815 20.0124 8.65912 20.1528 8.4248 20.2529C8.19174 20.3517 7.91021 20.4013 7.58105 20.4014C7.25456 20.4014 6.96983 20.351 6.72754 20.251C6.48659 20.1509 6.29777 20.0028 6.16211 19.8066C6.02775 19.6091 5.95678 19.3644 5.9502 19.0732H6.77832C6.78754 19.2089 6.82701 19.3222 6.89551 19.4131C6.9653 19.5026 7.058 19.5701 7.17383 19.6162C7.29106 19.661 7.42376 19.6836 7.57129 19.6836C7.71599 19.6835 7.84166 19.6622 7.94824 19.6201C8.05617 19.578 8.13998 19.5194 8.19922 19.4443C8.25835 19.3693 8.28809 19.2829 8.28809 19.1855C8.28802 19.0949 8.26086 19.0188 8.20703 18.957C8.15434 18.8951 8.07638 18.8423 7.97363 18.7988C7.87224 18.7554 7.74803 18.7152 7.60059 18.6797L7.16016 18.5693C6.81899 18.4863 6.54915 18.3562 6.35156 18.1797C6.15418 18.0032 6.0563 17.7657 6.05762 17.4668C6.05631 17.2218 6.12121 17.0073 6.25293 16.8242C6.38592 16.6413 6.5682 16.4982 6.7998 16.3955C7.03164 16.2928 7.29575 16.2422 7.59082 16.2422ZM11.4395 16.2422C11.7964 16.2422 12.1175 16.324 12.4033 16.4873C12.6905 16.6493 12.917 16.8848 13.083 17.1943C13.2503 17.5039 13.334 17.8791 13.334 18.3203C13.334 18.7615 13.2502 19.1368 13.083 19.4463C12.917 19.7558 12.6905 19.9929 12.4033 20.1562C12.1176 20.3181 11.7963 20.3994 11.4395 20.3994C11.08 20.3994 10.7574 20.3175 10.4717 20.1543C10.1858 19.991 9.95992 19.7539 9.79395 19.4443C9.62802 19.1348 9.54492 18.7602 9.54492 18.3203C9.54494 17.8791 9.62799 17.5039 9.79395 17.1943C9.95992 16.8848 10.1859 16.6493 10.4717 16.4873C10.7575 16.324 11.0799 16.2422 11.4395 16.2422ZM15.6709 16.2422C15.9052 16.2422 16.1222 16.2751 16.3223 16.3408C16.5238 16.4067 16.703 16.5024 16.8584 16.6289C17.0138 16.754 17.1398 16.9081 17.2373 17.0898C17.336 17.2716 17.3991 17.4795 17.4268 17.7139H16.5615C16.5457 17.6019 16.5136 17.502 16.4648 17.415C16.4162 17.327 16.3536 17.2522 16.2773 17.1904C16.201 17.1285 16.1128 17.0808 16.0127 17.0479C15.9139 17.0149 15.8063 16.999 15.6904 16.999C15.4812 16.999 15.2989 17.0504 15.1436 17.1543C14.9881 17.257 14.8669 17.4079 14.7812 17.6055C14.6957 17.8016 14.6533 18.04 14.6533 18.3203C14.6533 18.6088 14.6956 18.8516 14.7812 19.0479C14.8682 19.2441 14.9901 19.3921 15.1455 19.4922C15.3009 19.5922 15.4805 19.6426 15.6846 19.6426C15.7991 19.6426 15.9055 19.627 16.0029 19.5967C16.1016 19.5664 16.1893 19.5227 16.2656 19.4648C16.342 19.4056 16.405 19.3333 16.4551 19.249C16.5064 19.1648 16.5418 19.0688 16.5615 18.9609L17.4268 18.9648C17.4044 19.1504 17.3492 19.3296 17.2598 19.502C17.1715 19.6732 17.0515 19.8272 16.9014 19.9629C16.7526 20.0971 16.5747 20.2033 16.3682 20.2822C16.1627 20.3599 15.9303 20.3994 15.6709 20.3994C15.31 20.3994 14.9867 20.3176 14.7021 20.1543C14.419 19.991 14.1949 19.7538 14.0303 19.4443C13.8671 19.1349 13.7861 18.7601 13.7861 18.3203C13.7861 17.8792 13.8683 17.5038 14.0342 17.1943C14.2 16.885 14.4257 16.6493 14.71 16.4873C14.9945 16.324 15.3152 16.2422 15.6709 16.2422ZM20.4736 16.2422C20.7633 16.2422 21.0158 16.2928 21.2305 16.3955C21.4464 16.4969 21.6145 16.638 21.7344 16.8184C21.8542 16.9988 21.9141 17.2063 21.9141 17.4395C21.914 17.5921 21.8837 17.7429 21.8232 17.8916C21.764 18.0404 21.6577 18.2059 21.5049 18.3877C21.3521 18.5682 21.1363 18.7852 20.8584 19.0381L20.2676 19.6162V19.6445H21.9668V20.3438H19.082V19.7275L20.5225 18.3936C20.645 18.275 20.7481 18.1681 20.8311 18.0732C20.9152 17.9785 20.979 17.8857 21.0225 17.7949C21.0659 17.7027 21.0879 17.6028 21.0879 17.4961C21.0878 17.3778 21.0607 17.2759 21.0068 17.1904C20.9528 17.1035 20.8787 17.0363 20.7852 16.9902C20.6918 16.943 20.586 16.92 20.4678 16.9199C20.3441 16.9199 20.2357 16.9442 20.1436 16.9941C20.0513 17.0442 19.9797 17.1164 19.9297 17.21C19.8797 17.3035 19.8545 17.4149 19.8545 17.5439H19.043C19.043 17.2792 19.1028 17.0494 19.2227 16.8545C19.3425 16.6596 19.5106 16.509 19.7266 16.4023C19.9426 16.2956 20.1917 16.2422 20.4736 16.2422ZM11.4395 16.999C11.2328 16.999 11.0525 17.0491 10.8984 17.1504C10.7443 17.2518 10.6237 17.4014 10.5381 17.5977C10.4539 17.7938 10.4121 18.0347 10.4121 18.3203C10.4121 18.6062 10.4538 18.8477 10.5381 19.0439C10.6237 19.2401 10.7444 19.3888 10.8984 19.4902C11.0525 19.5915 11.2328 19.6426 11.4395 19.6426C11.6461 19.6426 11.8264 19.5915 11.9805 19.4902C12.1346 19.3888 12.2546 19.2401 12.3389 19.0439C12.4245 18.8477 12.4668 18.6062 12.4668 18.3203C12.4668 18.0348 12.4243 17.7938 12.3389 17.5977C12.2546 17.4014 12.1346 17.2518 11.9805 17.1504C11.8264 17.0491 11.6461 16.999 11.4395 16.999ZM13.0098 7.89844C13.2137 7.89847 13.405 7.92813 13.584 7.9873C13.7644 8.04658 13.9274 8.13345 14.0723 8.24805C14.2172 8.36133 14.339 8.49975 14.4365 8.66309C14.5338 8.82496 14.6008 9.00991 14.6377 9.21777H14.1475C14.1185 9.07691 14.0675 8.95333 13.9951 8.84668C13.924 8.73999 13.8371 8.65057 13.7344 8.57812C13.6329 8.50436 13.5203 8.44899 13.3965 8.41211C13.2728 8.37528 13.144 8.35647 13.0098 8.35645C12.7648 8.35645 12.5426 8.41825 12.3438 8.54199C12.1462 8.66581 11.9883 8.84879 11.8711 9.08984C11.7553 9.3308 11.6973 9.62641 11.6973 9.97656C11.6973 10.327 11.7552 10.6232 11.8711 10.8643C11.9883 11.1052 12.1462 11.2873 12.3438 11.4111C12.5426 11.5349 12.7648 11.5967 13.0098 11.5967C13.1439 11.5967 13.2729 11.5788 13.3965 11.542C13.5202 11.5051 13.633 11.4503 13.7344 11.3779C13.8371 11.3042 13.924 11.2131 13.9951 11.1064C14.0675 10.9985 14.1185 10.8749 14.1475 10.7354H14.6377C14.6008 10.9422 14.534 11.1277 14.4365 11.291C14.3391 11.4543 14.2171 11.5934 14.0723 11.708C13.9275 11.8212 13.7643 11.9076 13.584 11.9668C13.4051 12.0259 13.2136 12.0556 13.0098 12.0557C12.6648 12.0557 12.3575 11.9712 12.0889 11.8027C11.8201 11.6341 11.6082 11.3939 11.4541 11.083C11.3001 10.7722 11.2236 10.4032 11.2236 9.97656C11.2236 9.54986 11.3 9.18094 11.4541 8.87012C11.6082 8.55927 11.8202 8.31997 12.0889 8.15137C12.3576 7.98276 12.6646 7.89844 13.0098 7.89844ZM9.27832 12H8.76465L8.35742 10.8535H6.72168L6.31445 12H5.80078L7.28711 7.95312H7.79297L9.27832 12ZM10.3984 12H9.90918V7.95312H10.3984V12ZM16.7969 7.95312C17.1142 7.95314 17.3737 8.01048 17.5752 8.125C17.7781 8.23828 17.9279 8.3923 18.0254 8.58594C18.1228 8.77946 18.1718 8.99514 18.1719 9.2334C18.1719 9.47182 18.1229 9.68884 18.0254 9.88379C17.9292 10.0787 17.7806 10.2347 17.5791 10.3506C17.3776 10.4651 17.1194 10.5225 16.8047 10.5225H15.9199V12H15.4297V7.95312H16.7969ZM21.6777 12H21.1641L20.7568 10.8535H19.1211L18.7139 12H18.2002L19.6865 7.95312H20.1924L21.6777 12ZM19.2754 10.4189H20.6025L19.9551 8.59375H19.9238L19.2754 10.4189ZM6.87598 10.4189H8.20312L7.55566 8.59375H7.52344L6.87598 10.4189ZM15.9199 10.0869H16.7891C17.0063 10.0869 17.1808 10.0497 17.3125 9.97461C17.444 9.89963 17.5393 9.79841 17.5986 9.6709C17.6592 9.54181 17.6895 9.39542 17.6895 9.2334C17.6894 9.07152 17.6592 8.92651 17.5986 8.79883C17.5394 8.67126 17.4434 8.5714 17.3105 8.49902C17.1776 8.42529 17.0011 8.38773 16.7812 8.3877H15.9199V10.0869Z" fill="black"/>
<path d="M5.3125 14.0078L22.6892 14.0078" stroke="black" stroke-width="0.434417"/>
</svg>
