<svg width="51" height="28" viewBox="0 0 51 28" fill="none" xmlns="http://www.w3.org/2000/svg">
<path d="M22.1601 18.7031V15.1395H22.8056V16.6481H24.457V15.1395H25.1043V18.7031H24.457V17.1893H22.8056V18.7031H22.1601ZM26.3539 15.1395V18.7031H25.7084V15.1395H26.3539ZM26.955 18.7031V15.1395H28.2914C28.5651 15.1395 28.7948 15.1905 28.9804 15.2926C29.1672 15.3947 29.3081 15.5351 29.4033 15.7137C29.4995 15.8912 29.5477 16.093 29.5477 16.3192C29.5477 16.5478 29.4995 16.7508 29.4033 16.9283C29.307 17.1058 29.1649 17.2455 28.9769 17.3476C28.789 17.4485 28.5576 17.499 28.2827 17.499H27.397V16.9683H28.1957C28.3557 16.9683 28.4868 16.9404 28.5889 16.8848C28.691 16.8291 28.7664 16.7525 28.8151 16.6551C28.865 16.5576 28.8899 16.4457 28.8899 16.3192C28.8899 16.1928 28.865 16.0814 28.8151 15.9852C28.7664 15.8889 28.6904 15.8141 28.5872 15.7607C28.4851 15.7062 28.3534 15.6789 28.1922 15.6789H27.6006V18.7031H26.955ZM30.0709 18.7031H29.3818L30.6364 15.1395H31.4334L32.6897 18.7031H32.0006L31.0488 15.8703H31.021L30.0709 18.7031ZM30.0935 17.3059H31.9728V17.8244H30.0935V17.3059ZM33.5187 18.7031H32.8296L34.0842 15.1395H34.8812L36.1375 18.7031H35.4484L34.4966 15.8703H34.4688L33.5187 18.7031ZM33.5413 17.3059H35.4206V17.8244H33.5413V17.3059ZM25.2104 21.3419H24.5596C24.5411 21.2351 24.5068 21.1406 24.457 21.0582C24.4071 20.9747 24.345 20.904 24.2708 20.846C24.1965 20.7879 24.1118 20.7444 24.0167 20.7154C23.9228 20.6853 23.8213 20.6702 23.7122 20.6702C23.5185 20.6702 23.3468 20.7189 23.1972 20.8164C23.0475 20.9127 22.9304 21.0542 22.8457 21.2409C22.761 21.4266 22.7186 21.6533 22.7186 21.9213C22.7186 22.1939 22.761 22.4236 22.8457 22.6104C22.9315 22.796 23.0487 22.9363 23.1972 23.0315C23.3468 23.1254 23.5179 23.1724 23.7105 23.1724C23.8172 23.1724 23.917 23.1585 24.0098 23.1306C24.1037 23.1016 24.1878 23.0593 24.2621 23.0036C24.3375 22.9479 24.4007 22.8795 24.4517 22.7983C24.5039 22.7171 24.5399 22.6243 24.5596 22.5199L25.2104 22.5234C25.186 22.6927 25.1333 22.8517 25.0521 23.0001C24.972 23.1486 24.867 23.2797 24.7371 23.3934C24.6072 23.5059 24.4552 23.5941 24.2812 23.6579C24.1072 23.7205 23.9141 23.7518 23.7018 23.7518C23.3886 23.7518 23.109 23.6793 22.8631 23.5343C22.6171 23.3893 22.4234 23.1799 22.2819 22.9062C22.1404 22.6324 22.0696 22.3041 22.0696 21.9213C22.0696 21.5373 22.1409 21.209 22.2836 20.9364C22.4263 20.6627 22.6206 20.4533 22.8665 20.3083C23.1125 20.1633 23.3909 20.0908 23.7018 20.0908C23.9001 20.0908 24.0846 20.1186 24.2551 20.1743C24.4256 20.23 24.5776 20.3118 24.711 20.4196C24.8444 20.5264 24.954 20.6574 25.0399 20.8129C25.1269 20.9672 25.1837 21.1435 25.2104 21.3419ZM28.8879 21.9213C28.8879 22.3053 28.816 22.6342 28.6721 22.9079C28.5294 23.1805 28.3346 23.3893 28.0875 23.5343C27.8415 23.6793 27.5626 23.7518 27.2505 23.7518C26.9384 23.7518 26.6589 23.6793 26.4118 23.5343C26.1659 23.3882 25.971 23.1788 25.8271 22.9062C25.6844 22.6324 25.6131 22.3041 25.6131 21.9213C25.6131 21.5373 25.6844 21.209 25.8271 20.9364C25.971 20.6627 26.1659 20.4533 26.4118 20.3083C26.6589 20.1633 26.9384 20.0908 27.2505 20.0908C27.5626 20.0908 27.8415 20.1633 28.0875 20.3083C28.3346 20.4533 28.5294 20.6627 28.6721 20.9364C28.816 21.209 28.8879 21.5373 28.8879 21.9213ZM28.2389 21.9213C28.2389 21.651 28.1965 21.4231 28.1118 21.2375C28.0283 21.0507 27.9123 20.9098 27.7638 20.8146C27.6153 20.7183 27.4442 20.6702 27.2505 20.6702C27.0568 20.6702 26.8857 20.7183 26.7372 20.8146C26.5887 20.9098 26.4721 21.0507 26.3874 21.2375C26.3039 21.4231 26.2621 21.651 26.2621 21.9213C26.2621 22.1916 26.3039 22.4201 26.3874 22.6069C26.4721 22.7925 26.5887 22.9334 26.7372 23.0297C26.8857 23.1248 27.0568 23.1724 27.2505 23.1724C27.4442 23.1724 27.6153 23.1248 27.7638 23.0297C27.9123 22.9334 28.0283 22.7925 28.1118 22.6069C28.1965 22.4201 28.2389 22.1916 28.2389 21.9213ZM29.4002 20.1395H30.1902L31.2482 22.7217H31.2899L32.3479 20.1395H33.1379V23.7031H32.5184V21.2549H32.4853L31.5005 23.6927H31.0376L30.0527 21.2496H30.0197V23.7031H29.4002V20.1395ZM33.7428 23.7031V20.1395H35.0792C35.353 20.1395 35.5827 20.1905 35.7683 20.2926C35.955 20.3947 36.096 20.5351 36.1911 20.7137C36.2874 20.8912 36.3355 21.093 36.3355 21.3192C36.3355 21.5478 36.2874 21.7508 36.1911 21.9283C36.0948 22.1058 35.9527 22.2455 35.7648 22.3476C35.5769 22.4485 35.3454 22.499 35.0705 22.499H34.1848V21.9683H34.9835C35.1436 21.9683 35.2747 21.9404 35.3768 21.8848C35.4788 21.8291 35.5542 21.7525 35.603 21.6551C35.6528 21.5576 35.6778 21.4457 35.6778 21.3192C35.6778 21.1928 35.6528 21.0814 35.603 20.9852C35.5542 20.8889 35.4783 20.8141 35.375 20.7607C35.2729 20.7062 35.1413 20.6789 34.98 20.6789H34.3884V23.7031H33.7428ZM36.7983 23.7031V20.1395H37.4438V23.162H39.0134V23.7031H36.7983ZM40.1212 20.1395V23.7031H39.4757V20.1395H40.1212ZM41.1799 23.7031H40.4909L41.7454 20.1395H42.5424L43.7987 23.7031H43.1096L42.1578 20.8703H42.13L41.1799 23.7031ZM41.2025 22.3059H43.0818V22.8244H41.2025V22.3059ZM47.0986 20.1395V23.7031H46.5244L44.8452 21.2757H44.8156V23.7031H44.1701V20.1395H44.7478L46.4252 22.5686H46.4565V20.1395H47.0986ZM47.5474 20.6806V20.1395H50.3907V20.6806H49.2892V23.7031H48.6489V20.6806H47.5474Z" fill="black" fill-opacity="0.8"/>
<path d="M15.8928 25.341C15.9042 26.144 15.9157 26.729 15.9272 27.0158C15.9387 27.0502 15.9387 27.0961 15.9272 27.1305C15.9272 27.1764 15.9272 27.2108 15.9272 27.2108C15.9272 27.3714 15.9501 27.532 15.996 27.6811C16.0419 27.532 16.0648 27.3714 16.0648 27.2108C16.0648 27.1535 16.0878 26.3161 16.1222 24.974C16.1107 24.9854 16.0992 24.9969 16.0992 25.0084C16.0189 25.1116 15.9501 25.2263 15.8928 25.341ZM13.5068 8.59344C13.6903 8.39844 13.8624 8.16902 13.9886 7.92813C13.8968 8.1346 13.5412 8.91463 13.8853 8.98346C14.2639 9.05228 14.6883 8.93757 15.4569 7.96254C15.4339 6.7122 15.411 5.62246 15.3995 4.79655H14.9866C14.9636 4.79655 14.9521 4.79655 14.9292 4.79655C14.6998 4.79655 14.3212 4.77361 14.0689 4.39507C13.7936 3.98212 13.7821 3.55769 13.7706 3.24797C13.7592 2.80061 13.6445 1.98617 13.0824 1.52733C12.6924 1.21761 11.637 0.976722 10.662 1.36673C10.3408 1.49291 9.69845 1.82557 9.06754 2.13529C8.49399 2.42206 7.75985 2.77766 7.53043 2.77766C7.90898 2.6056 8.4137 2.35324 8.9643 2.04352C9.59521 1.69939 10.2605 1.33232 10.5932 1.19467C11.2585 0.930838 12.5318 0.850542 13.1856 1.37821C13.805 1.88293 13.9312 2.75472 13.9427 3.22503C13.9542 3.53475 13.9656 3.91329 14.2065 4.29183C14.4245 4.61302 14.7686 4.61302 14.9751 4.61302H15.021H15.388C15.388 4.50978 15.388 4.41801 15.388 4.31477C15.021 4.33771 14.4933 4.36066 14.2639 3.8674C13.9886 3.27091 14.2868 1.74528 13.3692 1.1029C12.4515 0.460529 10.9832 0.621122 9.6755 1.37821C8.37929 2.12382 6.65864 3.09885 4.53651 3.9477C2.41438 4.79655 1.09522 5.14068 0.842863 5.17509C0.601973 5.22098 1.03787 5.38157 1.94408 5.40451C2.85028 5.42745 3.60736 5.35863 3.60736 5.35863L10.2605 2.3303C10.2605 2.3303 4.52504 5.18656 4.04326 5.49628C3.56148 5.806 3.17147 5.90924 3.20588 6.19601C3.24029 6.48278 3.60736 6.44837 4.61681 6.42543C5.62625 6.40249 5.8442 6.31072 6.18833 6.20748C6.53246 6.10424 10.2605 4.3836 10.2605 4.3836C10.2605 4.3836 6.26863 6.36808 5.69508 6.82691C5.12153 7.28575 5.74096 7.43487 6.13098 7.44634C6.53246 7.45782 7.59926 7.40046 8.19575 7.10222C8.79224 6.80397 10.6505 5.61099 10.6505 5.61099C10.6505 5.61099 8.81518 6.93015 8.45958 7.2284C8.17281 7.46929 8.02369 7.67576 8.09251 7.92813C8.19575 8.24931 8.74636 8.2149 9.4805 7.95107C9.4805 7.95107 10.2376 7.68724 10.5244 7.43488C10.8111 7.17104 11.6141 6.45984 11.6141 6.45984C11.6141 6.45984 10.662 7.44634 10.4211 7.87077C10.1917 8.2952 10.1458 8.39844 10.2605 8.63933C10.4211 8.98346 11.637 8.62786 11.9812 8.26078C12.2335 7.97401 12.4744 7.67576 12.6924 7.35458C12.6924 7.35458 12.3253 7.95107 12.245 8.2952C12.1647 8.63933 12.0729 8.91463 12.4056 8.94904C12.7727 9.0064 13.1168 9.01787 13.5068 8.59344ZM15.7781 16.4052C15.8125 16.3822 15.8469 16.3593 15.8813 16.3363C15.9501 16.2905 16.0075 16.256 16.0534 16.2102C16.1451 16.1528 16.2369 16.084 16.3287 16.0266C16.3401 15.3728 16.3631 14.7075 16.3745 14.0536C16.191 13.9733 15.996 13.893 15.7895 13.8127C15.7781 13.8127 15.7666 13.8013 15.7551 13.8013C15.7322 13.7898 15.7207 13.7898 15.6978 13.7783C15.5601 13.7324 15.4339 13.6751 15.2848 13.6292C15.1127 13.5604 14.9407 13.503 14.7686 13.4342C13.6215 14.0421 13.3921 14.3289 13.3921 14.891C13.3921 15.6825 14.0689 16.0381 15.2389 16.7837C15.4225 16.6461 15.606 16.5199 15.7781 16.4052ZM14.3671 14.9942C14.3671 14.9942 14.2868 14.4895 15.5831 13.9045C15.6175 13.893 15.6519 13.8701 15.6863 13.8586C15.6978 14.6501 15.7092 15.4416 15.7322 16.2331C15.0898 15.7972 14.3671 15.3843 14.3671 14.9942ZM16.3287 24.7331C16.2713 24.8019 16.214 24.8707 16.1566 24.9281C16.4893 25.3755 16.4663 25.8114 16.2828 26.3734C16.4548 26.1784 16.799 25.6852 16.5122 25.0428C16.4548 24.9396 16.3975 24.8363 16.3287 24.7331ZM15.801 20.03C15.9272 20.1562 16.0763 20.3053 16.2254 20.4544C16.3172 20.5462 16.409 20.638 16.5122 20.7412C16.5237 20.7527 16.5466 20.7641 16.5696 20.7871C17.3496 20.1103 18.0608 19.4679 18.0608 18.6649C18.0608 18.034 17.4528 17.4605 16.8449 17.0017C16.7875 17.0361 16.7301 17.0705 16.6728 17.1164C16.5351 17.2081 16.409 17.2884 16.2943 17.3687C16.2943 17.3687 16.2828 17.3687 16.2828 17.3802C16.2598 17.4031 16.2254 17.4146 16.2025 17.4376C16.0419 17.5523 15.8928 17.6555 15.7551 17.7587C15.7781 18.5273 15.7895 19.2959 15.801 20.03ZM16.2943 17.4949C17.0513 18.0455 17.3496 18.4011 17.3496 18.7911C17.3496 19.1926 16.9252 19.6629 16.2369 20.3512C16.2484 19.4335 16.2713 18.4814 16.2943 17.4949ZM20.4812 6.47131C20.4812 6.47131 21.2841 7.18251 21.5709 7.44634C21.8577 7.71018 22.6147 7.96254 22.6147 7.96254C23.3489 8.22637 23.8995 8.26078 24.0027 7.9396C24.083 7.68724 23.9224 7.46929 23.6357 7.23987C23.2801 6.94162 21.4447 5.62246 21.4447 5.62246C21.4447 5.62246 23.303 6.81544 23.8995 7.11369C24.496 7.41193 25.5628 7.46929 25.9643 7.45782C26.3658 7.44635 26.9737 7.29722 26.4002 6.83838C25.8266 6.37954 21.8347 4.39507 21.8347 4.39507C21.8347 4.39507 25.5513 6.12718 25.9069 6.21895C26.251 6.32219 26.469 6.40249 27.4784 6.4369C28.4879 6.45984 28.8435 6.49425 28.8894 6.20748C28.9353 5.93218 28.5338 5.82894 28.052 5.50775C27.5702 5.19804 21.8347 2.34177 21.8347 2.34177L28.4879 5.3701C28.4879 5.3701 29.245 5.43893 30.1512 5.41598C31.0574 5.39304 31.4933 5.23245 31.2524 5.18657C31.0115 5.14068 29.6809 4.80802 27.5587 3.95917C25.4366 3.11032 23.716 2.14676 22.4197 1.38968C21.1235 0.644064 19.6438 0.472 18.7261 1.11437C17.8084 1.75675 18.1067 3.27092 17.8314 3.87888C17.6019 4.37213 17.0743 4.34919 16.7072 4.32624C16.7072 4.41801 16.7072 4.52125 16.6957 4.62449H17.0743H17.1202C17.3266 4.62449 17.6708 4.62449 17.8887 4.3033C18.1296 3.93623 18.1411 3.54622 18.1525 3.2365C18.164 2.76619 18.2902 1.8944 18.9096 1.38968C19.5635 0.862012 20.8368 0.942309 21.5021 1.20614C21.8347 1.33232 22.5 1.69939 23.1309 2.05499C23.6816 2.36471 24.1863 2.61707 24.5648 2.78913C24.3239 2.78913 23.6013 2.43353 23.0277 2.14676C22.4083 1.82557 21.7659 1.50439 21.4332 1.37821C20.4582 0.988193 19.4029 1.22908 19.0129 1.5388C18.4393 1.99764 18.3361 2.81208 18.3246 3.25944C18.3131 3.56916 18.3017 4.00506 18.0264 4.40654C17.7855 4.78508 17.4069 4.80802 17.166 4.80802C17.1431 4.80802 17.1316 4.80802 17.1087 4.80802H16.6957C16.6728 5.63393 16.6498 6.7122 16.6269 7.9396C17.4069 8.93757 17.8543 9.06375 18.2214 8.98346C18.5655 8.91463 18.2214 8.1346 18.1181 7.92813C18.2558 8.16902 18.4164 8.38696 18.5999 8.59344C18.9785 9.01787 19.3341 9.0064 19.6782 8.96051C20.0223 8.91463 19.9191 8.6508 19.8388 8.30667C19.7585 7.96254 19.3914 7.36605 19.3914 7.36605C19.6094 7.67576 19.8502 7.98548 20.1026 8.27225C20.4467 8.63933 21.6627 9.0064 21.8233 8.6508C21.9265 8.42138 21.8921 8.30667 21.6627 7.88224C21.4447 7.45782 20.4812 6.47131 20.4812 6.47131ZM16.0648 2.9612C16.2484 2.9612 16.4319 2.90384 16.581 2.8006C16.7301 2.69737 16.8563 2.54824 16.9252 2.38765C16.994 2.21559 17.0169 2.03205 16.9825 1.84852C16.9481 1.66498 16.8563 1.50439 16.7301 1.36673C16.604 1.24055 16.4319 1.14879 16.2484 1.11437C16.0648 1.07996 15.8813 1.09143 15.7092 1.17173C15.5372 1.24055 15.388 1.36673 15.2963 1.51586C15.193 1.66498 15.1357 1.84852 15.1357 2.03205C15.1357 2.15823 15.1586 2.27294 15.2045 2.38765C15.2504 2.50236 15.3192 2.6056 15.411 2.6859C15.5028 2.77766 15.5945 2.84649 15.7092 2.89237C15.8125 2.93826 15.9387 2.9612 16.0648 2.9612ZM19.1161 9.93554C19.1161 9.93554 19.0932 9.29317 18.0493 9.22434C16.9825 9.15552 16.9366 9.61436 16.9596 9.78642C17.0399 9.78642 17.1087 9.80936 17.1087 9.83231C17.1087 9.85525 17.0513 9.87819 16.9825 9.87819C17.0399 10.0503 17.2005 10.2567 17.6593 10.4862C18.0378 10.6697 18.2214 10.6582 18.4393 10.6238C18.4393 10.6238 18.6917 10.7729 18.6917 11.0138C18.6917 11.2432 18.2902 11.6906 16.409 12.6312C16.5237 7.56105 16.6269 3.11032 16.6269 3.11032H16.7416C16.7875 3.11032 16.8334 3.08738 16.8678 3.05297C16.9022 3.01855 16.9252 2.97267 16.9252 2.92679V2.86943C16.9252 2.84649 16.9252 2.82355 16.9137 2.8006C16.9022 2.77766 16.8907 2.75472 16.8678 2.74325C16.7646 2.85796 16.6498 2.94973 16.5122 3.01855C16.3745 3.08738 16.2254 3.11032 16.0763 3.11032C15.9272 3.11032 15.7781 3.07591 15.6404 3.01855C15.5028 2.9612 15.3766 2.85796 15.2848 2.74325C15.2619 2.76619 15.2504 2.77766 15.2389 2.8006C15.2274 2.82355 15.2274 2.84649 15.2274 2.86943V2.92679C15.2274 2.97267 15.2504 3.01855 15.2848 3.05297C15.3192 3.08738 15.3651 3.11032 15.411 3.11032H15.5257C15.5257 3.11032 15.606 7.43487 15.6863 12.4133C15.8469 12.4936 16.0075 12.5739 16.191 12.6656C16.214 12.6771 16.2484 12.6886 16.2713 12.7C16.6957 12.9065 17.0513 13.0786 17.3496 13.2392C18.359 12.8492 19.3455 12.4018 19.6438 11.7709C20.1714 10.6009 19.1161 9.93554 19.1161 9.93554ZM17.7166 9.67171C17.6019 9.67171 17.5102 9.61436 17.5102 9.54553C17.5102 9.47671 17.6019 9.41935 17.7166 9.41935C17.8314 9.41935 17.9231 9.47671 17.9231 9.54553C17.9231 9.61436 17.8314 9.67171 17.7166 9.67171ZM15.8928 24.194C15.9845 24.0792 16.0648 23.9645 16.1566 23.8613C16.1681 23.2074 16.191 22.4733 16.2025 21.6818C16.0878 21.5671 15.9616 21.4524 15.8239 21.3262C15.7781 21.2918 15.7436 21.2459 15.6978 21.2115C15.6404 21.1541 15.5831 21.1083 15.5257 21.0624C15.2045 21.3606 14.5736 22.0259 14.5736 22.5995C14.5736 23.2763 15.2275 23.9645 15.7207 24.4578C15.7666 24.3545 15.8239 24.2743 15.8928 24.194ZM15.8239 21.4639C15.8469 22.4389 15.8584 23.3336 15.8698 24.1022C15.4913 23.5975 15.0898 23.0813 15.0898 22.7257C15.0898 22.393 15.2848 22.0145 15.8239 21.4639ZM16.0878 12.8148C13.8509 11.7365 13.3921 11.2432 13.3921 11.0023C13.3921 10.7615 13.6445 10.6123 13.6445 10.6123C13.8624 10.6582 14.0459 10.6582 14.4245 10.4747C14.8833 10.2567 15.0439 10.0388 15.1013 9.86672C15.0324 9.86672 14.9751 9.84378 14.9751 9.82084C14.9751 9.79789 15.0439 9.77495 15.1242 9.77495V9.76348C15.1357 9.59142 15.0783 9.14405 14.023 9.21288C12.9791 9.2817 12.9562 9.92407 12.9562 9.92407C12.9562 9.92407 11.9009 10.6009 12.4515 11.748C12.9333 12.7689 15.193 13.308 16.5007 13.893C17.7969 14.478 17.7166 14.9828 17.7166 14.9828C17.7166 15.4187 16.8449 15.8775 16.1566 16.3593C15.4683 16.8411 14.0115 17.6784 14.0115 18.6649C14.0115 19.5712 14.9177 20.2709 15.801 21.0509C16.6957 21.8309 16.9825 22.3012 16.9825 22.7371C16.9825 23.3336 15.996 24.1366 15.4913 25.1346C14.9866 26.1325 15.9845 27.6811 15.6748 26.8667C15.3536 26.0522 15.5257 25.4787 15.9386 24.9052C16.4434 24.2054 17.5216 23.5172 17.5216 22.588C17.5216 21.808 16.386 20.8903 16.386 20.8903C15.3766 19.8809 14.7342 19.3073 14.7342 18.8026C14.7342 18.2979 15.216 17.8505 16.5696 16.9672C17.9117 16.0955 18.7032 15.7513 18.7032 14.9025C18.7032 14.1569 18.3246 13.893 16.0878 12.8148ZM14.3671 9.43082C14.4818 9.43082 14.5736 9.48818 14.5736 9.557C14.5736 9.62583 14.4818 9.68318 14.3671 9.68318C14.2524 9.68318 14.1607 9.62583 14.1607 9.557C14.1607 9.48818 14.2524 9.43082 14.3671 9.43082Z" fill="black"/>
</svg>
