<svg width="20" height="20" viewBox="0 0 20 20" fill="none" xmlns="http://www.w3.org/2000/svg">
<path d="M16.9309 3.74388C15.6559 3.1689 14.2893 2.7439 12.8601 2.50224C12.8474 2.4998 12.8342 2.50137 12.8224 2.50675C12.8107 2.51212 12.8008 2.52103 12.7943 2.53224C12.6193 2.83974 12.4243 3.24056 12.2877 3.55722C10.7719 3.33118 9.231 3.33118 7.71525 3.55722C7.56361 3.20601 7.39194 2.86379 7.20109 2.53224C7.19439 2.52113 7.18459 2.51221 7.1729 2.50659C7.1612 2.50096 7.14812 2.49887 7.13526 2.50058C5.70695 2.74224 4.34031 3.16723 3.06451 3.74305C3.05413 3.74859 3.04504 3.75625 3.03784 3.76555C0.444558 7.57797 -0.266261 11.2962 0.0828989 14.9678C0.0838705 14.9768 0.0866617 14.9855 0.0911028 14.9934C0.0955439 15.0013 0.101542 15.0082 0.108732 15.0137C1.62211 16.1161 3.31044 16.9556 5.1028 17.4969C5.11531 17.5006 5.1286 17.5004 5.14104 17.4966C5.15348 17.4927 5.16452 17.4853 5.1728 17.4753C5.55791 16.9591 5.89963 16.412 6.19444 15.8395C6.19853 15.8316 6.20088 15.823 6.20135 15.8142C6.20181 15.8054 6.20037 15.7966 6.19713 15.7883C6.19389 15.7801 6.18893 15.7727 6.18257 15.7666C6.17621 15.7604 6.16861 15.7557 6.16028 15.7528C5.62169 15.5507 5.10005 15.3061 4.60031 15.0212C4.59132 15.016 4.58375 15.0088 4.57827 15C4.5728 14.9912 4.56958 14.9812 4.56892 14.9709C4.56826 14.9605 4.57017 14.9502 4.57449 14.9408C4.5788 14.9314 4.58538 14.9232 4.59364 14.917C4.6992 14.8392 4.80253 14.7595 4.90364 14.6778C4.91284 14.671 4.92365 14.6666 4.93504 14.6651C4.94643 14.6637 4.958 14.6652 4.96864 14.6695C8.24107 16.1395 11.7852 16.1395 15.0193 14.6695C15.0299 14.6649 15.0416 14.6632 15.0532 14.6645C15.0647 14.6658 15.0757 14.6701 15.0851 14.677C15.1851 14.7592 15.2884 14.8392 15.3951 14.917C15.4034 14.9231 15.4101 14.9312 15.4146 14.9405C15.419 14.9498 15.4211 14.9601 15.4206 14.9704C15.4201 14.9807 15.4171 14.9908 15.4117 14.9996C15.4064 15.0085 15.399 15.0159 15.3901 15.0212C14.8929 15.3073 14.3726 15.5509 13.8293 15.752C13.8209 15.755 13.8133 15.7598 13.807 15.766C13.8006 15.7722 13.7956 15.7797 13.7924 15.788C13.7892 15.7963 13.7877 15.8052 13.7882 15.814C13.7887 15.8229 13.791 15.8316 13.7951 15.8395C14.0951 16.412 14.4384 16.957 14.8159 17.4744C14.824 17.4848 14.835 17.4925 14.8474 17.4967C14.8599 17.5008 14.8733 17.5012 14.8859 17.4978C16.681 16.9569 18.3719 16.1171 19.8875 15.0137C19.8948 15.0083 19.9009 15.0016 19.9054 14.9939C19.91 14.9862 19.913 14.9776 19.9142 14.9687C20.3308 10.7237 19.2159 7.03549 16.9567 3.76722C16.9512 3.7566 16.942 3.74832 16.9309 3.74388ZM6.6836 12.732C5.69862 12.732 4.88614 11.8412 4.88614 10.7487C4.88614 9.65543 5.68279 8.76545 6.6836 8.76545C7.69192 8.76545 8.4969 9.66293 8.48107 10.7487C8.48107 11.8421 7.68442 12.732 6.6836 12.732ZM13.3293 12.732C12.3435 12.732 11.5318 11.8412 11.5318 10.7487C11.5318 9.65543 12.3277 8.76545 13.3293 8.76545C14.3376 8.76545 15.1426 9.66293 15.1268 10.7487C15.1268 11.8421 14.3384 12.732 13.3293 12.732Z" fill="#666666"/>
</svg>
