<svg width="20" height="20" viewBox="0 0 20 20" fill="none" xmlns="http://www.w3.org/2000/svg">
<g clip-path="url(#clip0_29819_96457)">
<path d="M19.2898 2.15064L15.1755 0.171309C14.9428 0.0585766 14.6807 0.0211715 14.4258 0.0642971C14.1709 0.107423 13.9357 0.228934 13.753 0.411929L5.87255 7.60241L2.43825 4.99809C2.28358 4.87984 2.09231 4.81964 1.8978 4.82798C1.70329 4.83632 1.51787 4.91266 1.37389 5.04371L0.273913 6.04619C0.187938 6.12389 0.119158 6.2187 0.0719874 6.32454C0.0248164 6.43038 0.000296938 6.54492 2.68033e-06 6.6608C-0.000291578 6.77668 0.0236459 6.89134 0.0702787 6.99742C0.116911 7.1035 0.185209 7.19866 0.270788 7.27679L3.24948 9.99486L0.270788 12.7129C0.185209 12.7911 0.116911 12.8862 0.0702787 12.9923C0.0236459 13.0984 -0.000291578 13.213 2.68033e-06 13.3289C0.000296938 13.4448 0.0248164 13.5593 0.0719874 13.6652C0.119158 13.771 0.187938 13.8658 0.273913 13.9435L1.37389 14.946C1.51787 15.0771 1.70329 15.1534 1.8978 15.1617C2.09231 15.1701 2.28358 15.1099 2.43825 14.9916L5.87255 12.3842L13.7568 19.5778C13.9387 19.7609 14.1733 19.8826 14.4279 19.9257C14.6824 19.9689 14.944 19.9314 15.1761 19.8184L19.2942 17.836C19.5064 17.7343 19.6854 17.5745 19.8104 17.3751C19.9354 17.1758 20.0013 16.945 20.0004 16.7097V3.27562C20.0004 2.79688 19.7235 2.35752 19.291 2.14939L19.2898 2.15064ZM15.0024 14.5366L9.01936 9.99549L15.0024 5.45433V14.5366Z" fill="#666666"/>
</g>
<defs>
<clipPath id="clip0_29819_96457">
<rect width="19.9996" height="19.9996" fill="white"/>
</clipPath>
</defs>
</svg>
